<?xml version="1.0" ?><!DOCTYPE svg  PUBLIC '-//W3C//DTD SVG 1.1//EN'  'http://www.w3.org/Graphics/SVG/1.1/DTD/svg11.dtd'><svg enable_background="new 0 0 1000 877" height="877px" style="stroke-linejoin: round; stroke:#000; fill: none;" version="1.1" viewBox="0 0 1000 877" width="1000px" xmlns="http://www.w3.org/2000/svg" xmlns:xlink="http://www.w3.org/1999/xlink"><defs><style type="text/css"><![CDATA[path { fill-rule: evenodd; }]]></style></defs><metadata><views><view h="877.59135722" padding="0" w="1000"><proj id="laea" lat0="52.3893522732" lon0="10.773267128"/><bbox h="32.27" w="36.81" x="969.31" y="981.21"/></view></views></metadata><g class="" id="wahlkreise"><path d="M813,485L813,485L811,490L810,490L808,491L808,493L809,498L810,508L812,508L812,513L812,513L813,513L817,513L819,516L822,516L824,520L823,521L827,521L834,527L838,527L840,524L842,524L842,528L840,529L842,530L846,531L847,534L848,532L850,532L851,529L854,527L855,525L855,523L850,519L851,518L855,514L853,513L853,510L855,508L859,507L860,503L857,501L855,501L855,501L854,501L840,495L839,490L833,489L829,491L825,491L825,490L819,488L818,487L813,485L813,485Z " data-id="07" data-name="Wolfsburg, Stadt" id="07"/><path d="M646,586L646,586L645,591L646,591L643,596L650,606L650,605L656,608L657,604L665,599L667,600L671,604L676,605L676,605L676,604L677,597L681,596L681,595L683,594L681,591L682,585L678,580L673,578L670,575L670,577L668,577L664,575L659,576L658,578L654,578L654,577L653,583L653,585L651,586L646,586L646,586Z " data-id="21" data-name="Hildesheim, Stadt" id="21"/><path d="M404,266L403,266L401,270L403,271L402,274L399,276L398,278L394,279L393,286L397,288L396,290L394,295L391,298L394,303L399,298L398,296L401,293L404,297L407,296L407,296L407,296L409,292L412,291L412,287L414,287L418,285L418,284L418,274L414,271L411,270L410,268L411,265L408,263L407,263L407,263L404,266L404,266Z " data-id="65" data-name="Delmenhorst, Stadt" id="65"/><path d="M301,82L293,86L291,84L288,88L283,90L283,92L284,94L285,98L288,101L290,104L290,106L289,105L287,106L286,108L288,109L287,110L290,110L289,113L288,114L288,115L289,118L291,122L293,125L293,125L297,127L301,127L310,124L312,124L314,119L313,118L314,115L314,109L312,108L312,107L310,101L313,100L310,93L306,94L306,90L301,82L301,82Z " data-id="69" data-name="Wilhelmshaven, Stadt" id="69"/><path d="M831,372L831,365L833,361L832,359L835,358L839,355L844,357L847,355L847,355L845,352L843,351L840,350L842,348L844,347L844,344L841,342L840,341L843,333L845,332L847,328L850,330L849,325L852,318L849,318L847,312L852,310L852,308L857,306L857,304L857,299L853,299L853,293L851,291L847,290L847,286L846,280L838,274L832,273L832,270L830,268L830,264L828,264L824,259L809,252L805,252L804,248L810,246L811,244L810,242L808,243L801,241L799,243L797,247L795,248L792,245L792,246L787,247L786,244L782,239L780,238L777,242L774,242L772,241L768,234L767,234L767,234L765,236L761,236L762,239L759,238L757,240L750,240L747,241L745,236L745,234L737,241L734,242L735,246L742,248L743,253L743,256L745,257L747,259L745,262L748,266L747,267L744,267L741,275L736,274L733,273L731,275L725,276L725,278L722,279L720,281L720,282L720,282L722,286L721,291L722,297L718,295L709,296L714,301L715,300L721,302L721,309L723,312L722,321L724,326L725,326L725,326L725,326L728,331L731,336L732,338L734,346L737,349L739,347L740,348L738,350L742,356L740,358L742,360L744,358L749,358L751,359L754,366L758,367L761,370L767,367L767,367L767,367L770,369L776,365L789,361L790,362L795,369L797,373L799,374L802,377L805,382L807,382L812,384L814,382L819,378L821,378L827,376L828,374L831,374L831,372Z " data-id="47" data-name="Stadensen" id="47"/><path d="M763,186L763,186L755,183L752,185L743,186L744,192L744,193L739,194L739,194L732,194L731,195L730,198L723,202L721,207L725,209L730,209L728,211L727,214L730,218L730,219L723,222L720,223L719,226L718,225L719,227L718,230L720,229L722,233L726,236L725,237L725,240L722,242L720,242L719,244L718,242L714,244L712,241L711,243L705,247L700,248L700,248L698,259L693,261L693,261L693,262L697,265L699,266L702,269L698,272L698,275L691,280L693,283L690,284L687,281L685,284L687,287L692,290L707,289L708,287L714,279L718,279L718,282L720,282L720,282L720,281L722,279L725,278L725,276L731,275L733,273L736,274L741,275L744,267L747,267L748,266L745,262L747,259L745,257L743,256L743,253L742,248L735,246L734,242L737,241L745,234L745,236L747,241L750,240L757,240L759,238L762,239L761,236L765,236L767,234L767,234L767,233L766,229L772,229L775,229L777,230L779,230L780,227L778,226L780,225L780,223L781,218L777,216L777,220L775,219L774,217L771,215L769,214L766,214L764,210L763,210L763,202L765,199L761,197L761,195L759,192L763,192L764,189L763,186L763,186Z " data-id="49" data-name="Handorf" id="49"/><path d="M763,186L763,186L765,186L765,185L770,182L773,178L773,176L772,176L766,173L754,163L745,163L742,160L740,160L736,163L731,165L726,172L722,172L718,171L715,172L711,171L707,165L706,163L701,162L701,162L698,166L694,169L693,175L694,181L690,183L692,185L698,189L699,190L698,194L698,194L696,197L692,199L688,195L689,197L680,195L678,193L678,193L677,193L674,197L674,200L671,204L669,210L669,212L667,214L665,212L662,210L659,211L657,216L662,222L661,223L658,222L655,228L654,229L649,228L648,229L648,234L648,234L648,234L650,237L656,239L659,243L663,246L669,244L676,245L678,247L678,251L684,252L686,254L688,254L690,258L692,259L693,261L693,261L693,261L698,259L700,248L700,248L705,247L711,243L712,241L714,244L718,242L719,244L720,242L722,242L725,240L725,237L726,236L722,233L720,229L718,230L719,227L718,225L719,226L720,223L723,222L730,219L730,218L727,214L728,211L730,209L725,209L721,207L723,202L730,198L731,195L732,194L739,194L739,194L744,193L744,192L743,186L752,185L755,183L763,186L763,186Z " data-id="50" data-name="Egestorf" id="50"/><path d="M633,135L633,137L628,139L629,142L631,142L634,143L633,146L636,154L636,156L633,158L627,157L624,162L624,162L624,162L631,164L633,168L635,169L632,170L632,173L633,175L635,176L636,179L642,182L642,179L647,180L647,179L652,178L657,180L659,181L657,183L661,186L665,192L669,189L669,187L671,185L672,186L675,186L678,185L681,188L678,193L678,193L678,193L680,195L689,197L688,195L692,199L696,197L698,194L698,194L699,190L698,189L692,185L690,183L694,181L693,175L694,169L698,166L701,162L700,161L698,156L696,153L693,152L690,150L688,152L688,155L684,155L682,157L685,159L683,161L681,161L677,164L674,166L673,163L668,161L667,163L664,164L661,166L662,160L664,158L662,155L659,151L654,156L652,157L652,160L644,151L642,149L641,149L639,147L640,139L636,139L636,137L633,135L633,135Z " data-id="51" data-name="Neu Wulmstorf" id="51"/><path d="M548,152L549,153L549,157L547,162L550,166L553,165L554,166L552,171L551,172L556,177L558,180L562,183L567,186L568,187L571,186L574,186L575,183L581,174L582,174L585,178L591,178L590,188L591,190L591,190L591,190L594,187L596,183L601,180L602,181L602,176L604,173L608,171L609,166L613,167L620,165L624,162L624,162L624,162L627,157L633,158L636,156L636,154L633,146L634,143L631,142L629,142L628,139L633,137L633,135L633,135L632,134L633,130L636,130L634,127L634,122L634,118L621,117L614,114L607,108L598,103L591,98L590,97L582,98L580,98L581,103L580,104L581,106L588,110L585,113L584,111L581,116L579,118L579,123L582,124L584,126L584,131L584,133L582,133L581,134L577,135L576,136L572,136L572,138L567,139L560,143L560,146L559,146L557,148L556,148L548,152L548,152Z " data-id="55" data-name="Hollern-Twielenfleth" id="55"/><path d="M693,261L693,261L692,259L690,258L688,254L686,254L684,252L678,251L678,247L676,245L669,244L663,246L659,243L656,239L650,237L648,234L648,234L647,234L645,235L644,238L640,240L632,239L628,237L627,234L623,232L619,231L615,230L614,232L617,235L617,237L620,238L619,241L622,242L622,244L625,246L625,248L630,248L622,251L612,250L612,258L610,257L607,255L607,258L606,259L606,261L604,260L603,265L603,268L606,271L607,273L606,274L606,276L604,281L602,281L602,284L599,285L600,290L601,291L605,292L606,294L610,295L611,296L613,299L609,303L609,307L613,307L613,308L609,309L611,312L610,313L609,314L609,314L610,315L616,318L621,319L624,318L626,320L628,323L637,325L638,324L640,326L642,327L644,326L649,328L651,327L650,325L654,321L658,321L663,320L664,314L668,314L672,312L679,312L682,311L683,312L685,318L691,320L693,331L692,335L691,336L693,336L697,337L700,339L701,338L702,334L708,333L709,333L710,326L714,328L716,329L716,331L720,329L722,329L725,327L725,326L725,326L724,326L722,321L723,312L721,309L721,302L715,300L714,301L709,296L718,295L722,297L721,291L722,286L720,282L720,282L720,282L718,282L718,279L714,279L708,287L707,289L692,290L687,287L685,284L687,281L690,284L693,283L691,280L698,275L698,272L702,269L699,266L697,265L693,262L693,261Z " data-id="44" data-name="Munster, Stadt" id="44"/><path d="M590,97L588,92L586,81L583,72L578,66L571,60L568,58L566,55L557,36L555,37L552,35L549,29L548,26L545,22L538,15L537,14L527,13L520,12L511,12L500,13L497,15L493,16L490,17L486,21L486,21L491,29L493,28L493,29L495,30L497,32L502,31L503,33L505,32L506,30L506,32L507,35L512,37L511,38L515,40L516,38L518,39L520,44L524,46L526,49L534,45L536,48L541,58L532,66L532,67L525,70L525,71L526,77L531,79L531,76L536,77L537,79L535,83L537,86L535,88L528,91L527,90L526,93L524,95L522,95L518,94L517,96L513,99L510,103L510,103L511,105L512,109L513,109L513,117L517,124L524,121L528,121L530,121L532,119L535,119L535,121L532,123L537,127L534,130L533,130L527,135L527,139L526,140L528,147L529,146L530,148L532,147L533,148L536,145L541,151L545,148L548,152L548,152L548,152L556,148L557,148L559,146L560,146L560,143L567,139L572,138L572,136L576,136L577,135L581,134L582,133L584,133L584,131L584,126L582,124L579,123L579,118L581,116L584,111L585,113L588,110L581,106L580,104L581,103L580,98L582,98L590,97L590,97Z " data-id="56" data-name="Heinbockel" id="56"/><path d="M548,152L548,152L545,148L541,151L536,145L533,148L532,147L530,148L529,146L528,147L526,140L527,139L527,135L533,130L534,130L537,127L532,123L535,121L535,119L532,119L530,121L528,121L524,121L517,124L513,117L513,109L512,109L511,105L510,103L510,104L509,104L505,111L505,114L504,116L502,116L499,113L493,109L491,110L490,112L488,114L486,115L480,114L475,117L478,120L471,123L468,122L467,121L460,127L467,130L472,131L473,132L473,135L471,136L471,143L474,145L473,145L472,148L470,147L463,152L462,154L465,155L466,158L469,163L468,165L464,169L462,171L460,170L460,171L461,173L461,173L461,173L461,175L467,178L467,180L468,184L467,186L471,189L471,189L471,189L473,188L475,189L478,193L478,195L476,198L477,199L481,201L477,209L477,211L480,215L482,216L483,218L484,226L484,236L485,240L489,243L492,251L499,253L504,248L504,247L507,244L508,244L513,240L513,240L513,240L516,238L515,237L515,232L516,231L518,232L522,231L521,235L527,240L531,241L535,239L540,238L541,242L546,243L550,239L551,237L550,232L553,230L558,229L561,225L566,220L568,223L574,225L579,223L583,219L584,220L593,217L598,217L599,216L599,216L598,211L596,206L598,205L598,207L599,207L598,203L598,201L596,199L593,193L592,191L591,190L591,190L590,188L591,178L585,178L582,174L581,174L575,183L574,186L571,186L568,187L567,186L562,183L558,180L556,177L551,172L552,171L554,166L553,165L550,166L547,162L549,157L549,153L548,152Z " data-id="54" data-name="Klein Meckelsen" id="54"/><path d="M510,103L510,103L513,99L517,96L518,94L522,95L524,95L526,93L527,90L528,91L535,88L537,86L535,83L537,79L536,77L531,76L531,79L526,77L525,71L525,70L532,67L532,66L541,58L536,48L534,45L526,49L524,46L520,44L518,39L516,38L515,40L511,38L512,37L507,35L506,32L506,30L505,32L503,33L502,31L497,32L495,30L493,29L493,28L491,29L486,21L486,21L481,19L471,21L471,21L463,22L462,22L450,21L449,21L450,27L454,29L451,36L451,38L455,42L454,42L450,39L439,36L438,36L431,44L430,45L425,44L425,45L426,54L428,56L434,69L434,69L428,83L431,88L428,90L426,88L423,88L419,88L419,92L419,92L419,92L423,94L421,104L422,108L428,114L433,115L437,118L442,119L444,118L448,121L452,125L457,128L459,129L454,134L449,134L448,136L443,137L437,138L435,139L427,140L425,145L421,147L417,150L414,152L416,155L416,161L417,165L418,165L419,171L422,173L434,173L435,174L438,172L438,170L446,170L447,169L453,168L460,172L461,173L461,173L460,171L460,170L462,171L464,169L468,165L469,163L466,158L465,155L462,154L463,152L470,147L472,148L473,145L474,145L471,143L471,136L473,135L473,132L472,131L467,130L460,127L467,121L468,122L471,123L478,120L475,117L480,114L486,115L488,114L490,112L491,110L493,109L499,113L502,116L504,116L505,114L505,111L509,104L510,104L510,103Z " data-id="57" data-name="Frelsdorf" id="57"/><path d="M413,96L414,96L415,91L419,92L419,92L419,92L419,88L423,88L426,88L428,90L431,88L428,83L434,69L434,69L428,56L426,54L425,45L425,44L430,45L431,44L438,36L439,36L450,39L454,42L455,42L451,38L451,36L454,29L450,27L449,21L449,21L441,20L426,10L426,7L422,4L421,0L412,2L410,3L408,3L405,6L405,7L397,16L392,28L388,47L385,52L379,67L379,76L380,82L385,94L386,95L389,95L398,99L400,100L402,99L404,97L407,96L411,98L410,95L413,95L413,96L413,96Z " data-id="58" data-name="Cappel" id="58"/><path d="M419,92L419,92L415,91L414,96L413,96L413,96L409,100L410,100L406,104L405,106L407,112L410,115L408,120L409,124L411,126L408,130L404,135L400,136L399,136L398,134L397,136L388,138L384,140L382,139L382,141L380,141L379,141L378,158L379,180L379,183L377,188L377,191L377,194L375,207L375,212L375,222L375,222L381,222L383,224L388,229L391,227L392,228L393,226L397,228L397,229L393,235L396,236L396,237L402,233L405,234L405,235L408,237L408,238L412,239L412,239L412,235L413,232L410,231L410,228L417,225L418,223L418,219L417,217L418,214L417,212L412,212L410,202L415,201L416,199L420,199L423,199L424,197L423,194L429,193L431,191L434,194L436,193L435,202L441,209L449,210L449,211L451,211L451,210L455,204L459,201L466,205L467,204L471,201L471,200L470,192L471,190L471,189L471,189L467,186L468,184L467,180L467,178L461,175L461,173L461,173L460,172L453,168L447,169L446,170L438,170L438,172L435,174L434,173L422,173L419,171L418,165L417,165L416,161L416,155L414,152L417,150L421,147L425,145L427,140L435,139L437,138L443,137L448,136L449,134L454,134L459,129L457,128L452,125L448,121L444,118L442,119L437,118L433,115L428,114L422,108L421,104L423,94L419,92L419,92Z " data-id="59" data-name="Bramstedt" id="59"/><path d="M471,189L471,190L470,192L471,200L471,201L467,204L466,205L459,201L455,204L451,210L451,211L449,211L449,210L441,209L435,202L436,193L434,194L431,191L429,193L423,194L424,197L423,199L420,199L416,199L415,201L410,202L412,212L417,212L418,214L417,217L418,219L418,223L417,225L410,228L410,231L413,232L412,235L412,239L412,240L415,239L417,238L418,240L420,238L423,239L425,242L425,244L430,244L432,247L439,245L440,246L443,245L443,246L445,247L449,254L449,255L457,255L458,254L459,256L461,253L466,250L468,251L470,254L474,259L467,261L469,267L474,268L474,269L470,271L469,272L470,278L470,282L472,285L472,285L474,288L479,287L480,285L482,284L485,285L486,284L491,284L493,286L493,284L496,286L497,286L502,283L502,285L505,289L506,293L509,292L510,290L511,294L513,296L516,295L517,290L517,290L517,289L514,286L513,283L514,280L513,278L510,277L508,273L508,269L509,267L510,268L511,266L514,263L513,260L512,259L516,252L515,248L511,247L512,245L514,247L517,245L513,240L513,240L513,240L508,244L507,244L504,247L504,248L499,253L492,251L489,243L485,240L484,236L484,226L483,218L482,216L480,215L477,211L477,209L481,201L477,199L476,198L478,195L478,193L475,189L473,188L471,189L471,189Z " data-id="60" data-name="Lilienthal" id="60"/><path d="M379,140L381,134L383,131L388,127L391,126L391,125L391,118L386,116L384,114L384,112L382,114L377,113L375,113L369,110L361,107L358,105L354,97L349,92L344,91L339,92L332,98L330,103L330,104L328,118L327,122L332,123L337,123L341,121L344,124L344,130L344,142L342,146L339,151L339,153L336,158L334,160L330,163L326,163L319,159L319,159L319,161L321,164L321,165L319,168L320,172L317,177L314,177L312,178L309,183L305,185L304,185L304,185L303,187L300,189L303,191L302,193L302,198L303,199L302,204L306,207L308,205L313,208L309,211L312,210L310,213L309,213L309,215L312,218L311,219L310,222L313,222L315,226L314,227L317,229L317,229L318,229L321,229L323,230L327,230L327,231L335,233L337,233L336,237L339,245L339,246L339,246L342,243L344,243L355,240L354,241L356,251L357,257L363,255L369,251L378,258L378,257L376,255L378,256L379,255L390,260L392,258L395,259L399,263L403,266L404,266L404,266L407,263L407,263L407,263L406,257L403,253L402,250L402,245L400,242L394,241L385,236L379,231L375,222L375,222L375,212L375,207L377,194L377,191L377,188L379,183L379,180L378,158L379,141L379,140Z " data-id="71" data-name="Brake (Unterweser), Stadt" id="71"/><path d="M567,331L567,331L570,327L570,326L577,325L578,323L581,320L585,320L587,322L587,323L589,324L589,328L592,328L596,326L598,319L602,319L603,317L609,314L609,314L610,313L611,312L609,309L613,308L613,307L609,307L609,303L613,299L611,296L610,295L606,294L605,292L601,291L600,290L599,285L602,284L602,281L604,281L606,276L606,274L607,273L606,271L603,268L603,265L604,260L606,261L606,259L607,258L607,255L610,257L612,258L612,250L622,251L630,248L625,248L625,246L622,244L622,242L619,241L620,238L617,237L617,235L614,232L615,230L614,230L603,227L601,224L599,223L599,217L599,216L598,217L593,217L584,220L583,219L579,223L574,225L568,223L566,220L561,225L558,229L553,230L550,232L551,237L550,239L546,243L541,242L540,238L535,239L531,241L527,240L521,235L522,231L518,232L516,231L515,232L515,237L516,238L513,240L513,240L513,240L517,245L514,247L512,245L511,247L515,248L516,252L512,259L513,260L514,263L511,266L510,268L509,267L508,269L508,273L510,277L513,278L514,280L513,283L514,286L517,289L517,290L517,290L519,288L521,288L528,292L534,293L539,298L541,297L541,299L543,298L545,298L543,306L547,306L552,308L556,304L561,303L564,302L568,306L568,308L569,313L569,315L569,317L567,318L565,320L566,323L567,330L567,331Z " data-id="53" data-name="Kirchwalsede" id="53"/><path d="M472,286L470,288L469,288L465,291L464,294L463,296L459,296L459,297L462,301L461,305L460,307L458,306L456,311L457,315L461,324L464,333L465,338L465,338L465,338L468,335L469,337L471,338L473,335L475,328L477,326L480,326L481,327L482,326L483,328L488,327L491,334L492,333L497,334L499,336L503,337L507,337L509,335L510,337L518,345L517,345L511,349L513,350L519,352L519,354L514,363L515,364L519,364L520,362L522,362L523,366L526,369L529,368L530,366L533,363L533,365L536,365L537,366L535,370L536,370L535,375L536,378L540,378L540,380L540,380L540,380L541,377L545,371L547,368L545,367L545,361L549,362L553,359L551,353L552,350L555,347L555,346L559,342L559,338L560,335L562,335L567,332L567,331L567,331L567,330L566,323L565,320L567,318L569,317L569,315L569,313L568,308L568,306L564,302L561,303L556,304L552,308L547,306L543,306L545,298L543,298L541,299L541,297L539,298L534,293L528,292L521,288L519,288L517,290L517,290L517,290L516,295L513,296L511,294L510,290L509,292L506,293L505,289L502,285L502,283L497,286L496,286L493,284L493,286L491,284L486,284L485,285L482,284L480,285L479,287L474,288L472,285L472,286Z " data-id="61" data-name="Achim, Stadt" id="61"/><path d="M757,453L757,453L757,451L759,451L760,448L754,449L754,446L758,444L757,442L760,439L760,436L757,432L755,431L755,429L757,423L757,416L756,414L753,409L751,409L753,407L752,405L752,402L751,399L751,396L754,394L758,386L757,380L758,380L762,374L762,372L764,371L767,367L767,367L761,370L758,367L754,366L751,359L749,358L744,358L742,360L740,358L742,356L738,350L740,348L739,347L737,349L734,346L732,338L731,336L728,331L725,326L725,326L725,327L722,329L720,329L716,331L716,329L714,328L710,326L709,333L708,333L702,334L701,338L700,339L697,337L693,336L691,336L691,337L689,339L685,340L679,344L672,349L670,347L668,346L666,341L655,340L655,337L652,339L651,339L653,338L653,336L650,337L650,342L648,343L648,344L646,345L645,349L647,352L646,360L643,361L643,365L641,370L640,371L641,376L639,377L642,378L642,379L642,389L641,388L638,390L636,389L634,391L626,393L628,399L626,400L622,400L621,402L622,411L621,412L624,415L624,415L625,415L631,414L636,415L637,416L640,414L640,413L643,409L647,408L650,410L651,412L649,415L649,419L650,418L657,425L659,415L662,414L662,416L664,418L663,419L668,419L669,421L673,423L675,424L677,421L676,417L678,415L675,413L676,412L678,414L685,415L684,412L683,410L683,408L685,408L682,405L683,398L687,401L689,397L692,398L695,397L699,401L700,400L708,403L710,401L712,403L712,410L711,411L712,420L718,415L719,419L718,422L714,423L712,424L713,427L715,426L716,435L714,435L709,440L709,444L707,442L703,444L702,445L701,451L697,450L695,448L687,444L680,445L676,444L674,445L674,446L674,446L675,446L673,448L672,451L669,455L675,457L673,460L673,460L673,460L683,459L684,460L691,460L692,463L695,465L697,469L701,470L704,473L708,471L709,471L714,469L725,474L730,476L731,469L731,469L731,469L728,467L734,467L732,464L734,463L738,465L739,462L738,462L739,460L743,459L744,459L744,456L746,457L748,454L747,453L748,452L753,455L754,457L754,453L757,453L757,453Z " data-id="45" data-name="Langlingen" id="45"/><path d="M624,415L624,415L625,419L625,420L622,425L622,425L622,425L625,427L629,428L631,430L636,433L635,435L637,436L637,436L637,436L643,436L640,438L642,439L645,435L647,437L651,436L653,437L652,439L651,441L652,442L655,440L656,440L657,439L659,441L665,442L666,442L669,442L671,446L672,445L674,446L674,446L674,445L676,444L680,445L687,444L695,448L697,450L701,451L702,445L703,444L707,442L709,444L709,440L714,435L716,435L715,426L713,427L712,424L714,423L718,422L719,419L718,415L712,420L711,411L712,410L712,403L710,401L708,403L700,400L699,401L695,397L692,398L689,397L687,401L683,398L682,405L685,408L683,408L683,410L684,412L685,415L678,414L676,412L675,413L678,415L676,417L677,421L675,424L673,423L669,421L668,419L663,419L664,418L662,416L662,414L659,415L657,425L650,418L649,419L649,415L651,412L650,410L647,408L643,409L640,413L640,414L637,416L636,415L631,414L625,415L624,415Z " data-id="46" data-name="Celle, Stadt" id="46"/><path d="M813,485L813,485L818,487L819,488L825,490L825,491L826,490L829,491L833,489L839,490L840,495L854,501L855,501L855,501L858,500L855,498L856,496L857,496L854,494L856,493L857,490L856,489L857,486L860,486L866,482L866,482L868,480L868,475L874,472L878,474L881,474L875,467L872,462L868,456L867,450L869,445L869,442L873,438L874,435L874,431L868,432L868,434L862,433L859,426L855,422L854,417L849,412L846,407L846,405L846,403L845,400L838,401L836,395L837,393L836,388L834,387L830,378L830,376L831,374L828,374L827,376L821,378L819,378L814,382L812,384L807,382L805,382L802,377L799,374L797,373L795,369L790,362L789,361L776,365L770,369L767,367L767,367L764,371L762,372L762,374L758,380L757,380L758,386L754,394L751,396L751,399L752,402L752,405L753,407L751,409L753,409L756,414L757,416L757,423L755,429L755,431L757,432L760,436L760,439L757,442L758,444L754,446L754,449L760,448L759,451L757,451L757,453L757,453L758,453L762,453L762,453L765,452L767,454L771,453L773,454L776,449L780,453L782,453L792,451L796,452L796,456L797,457L794,464L794,464L790,465L790,469L791,472L793,472L795,475L800,474L801,476L804,478L803,478L802,482L803,483L802,485L807,486L808,483L812,485L813,485Z " data-id="05" data-name="Wahrenholz" id="05"/><path d="M673,460L673,460L671,462L669,462L669,466L669,468L672,473L666,478L664,482L660,486L662,489L661,491L659,493L659,496L662,496L660,500L658,499L658,502L656,500L655,500L655,500L656,501L659,503L658,505L654,505L652,508L653,512L654,519L654,519L654,519L657,521L660,520L659,517L665,515L666,518L665,519L666,521L668,522L669,525L676,525L679,524L680,523L688,521L691,528L691,528L691,528L692,526L695,525L695,528L699,531L702,530L701,526L704,526L704,523L701,521L703,521L707,519L705,513L702,511L702,508L704,507L709,507L712,507L716,502L716,501L717,496L721,496L725,498L727,499L727,494L735,490L735,490L735,490L736,487L737,487L737,485L735,485L735,482L733,481L731,477L732,477L733,474L735,470L731,469L731,469L731,469L730,476L725,474L714,469L709,471L708,471L704,473L701,470L697,469L695,465L692,463L691,460L684,460L683,459L673,460L673,460Z " data-id="30" data-name="Lehrte, Stadt" id="30"/><path d="M673,460L673,460L675,457L669,455L672,451L673,448L675,446L674,446L674,446L674,446L672,445L671,446L669,442L666,442L665,442L659,441L657,439L656,440L655,440L652,442L651,441L652,439L653,437L651,436L647,437L645,435L642,439L640,438L643,436L637,436L637,436L637,436L637,442L639,443L641,445L638,448L637,451L634,452L636,454L637,458L637,459L633,459L633,461L637,465L635,467L632,468L630,472L622,472L611,471L605,469L603,469L603,473L602,476L602,480L600,485L601,485L603,488L602,490L601,493L600,492L600,494L601,495L601,494L606,493L608,495L613,494L618,495L618,496L621,497L623,496L627,496L628,492L630,487L633,488L637,488L639,491L639,492L641,494L639,495L644,498L644,497L653,498L653,502L655,500L655,500L656,500L658,502L658,499L660,500L662,496L659,496L659,493L661,491L662,489L660,486L664,482L666,478L672,473L669,468L669,466L669,462L671,462L673,460L673,460Z " data-id="31" data-name="Isernhagen" id="31"/><path d="M622,425L622,426L619,426L618,430L616,431L617,432L616,436L614,437L607,437L607,437L607,438L605,437L601,441L596,444L591,446L591,447L593,457L594,462L597,467L597,470L592,471L588,473L589,474L579,475L578,479L575,480L576,482L574,484L574,487L571,489L572,490L571,492L574,496L575,496L575,496L580,498L583,499L589,502L593,502L593,504L595,505L595,505L595,505L597,503L597,499L596,497L598,497L601,495L601,495L600,494L600,492L601,493L602,490L603,488L601,485L600,485L602,480L602,476L603,473L603,469L605,469L611,471L622,472L630,472L632,468L635,467L637,465L633,461L633,459L637,459L637,458L636,454L634,452L637,451L638,448L641,445L639,443L637,442L637,436L637,436L637,436L635,435L636,433L631,430L629,428L625,427L622,425L622,425Z " data-id="32" data-name="Wedemark" id="32"/><path d="M595,505L595,505L593,504L593,502L589,502L583,499L580,498L575,496L575,496L574,497L574,499L569,505L568,508L565,512L560,516L560,516L560,516L555,525L552,527L555,541L560,546L562,546L562,546L562,546L563,547L567,549L567,549L567,550L569,548L571,551L574,549L576,545L580,544L580,542L583,540L585,540L585,541L591,542L592,545L593,544L598,543L597,538L598,535L598,534L598,530L597,525L602,519L602,519L602,519L602,517L604,518L605,515L605,512L604,510L606,508L607,505L603,504L604,504L600,503L599,506L595,505L595,505Z " data-id="34" data-name="Gehrden, Stadt" id="34"/><path d="M602,519L602,519L597,525L598,530L598,534L598,535L597,538L598,543L593,544L592,545L591,542L585,541L585,540L583,540L580,542L580,544L576,545L574,549L571,551L569,548L567,550L567,549L567,549L565,552L567,555L570,556L571,558L574,564L573,563L575,569L571,568L572,569L572,576L571,580L573,584L575,584L582,582L586,584L591,590L594,591L595,593L598,595L598,595L598,594L602,594L602,594L607,595L607,594L611,593L612,592L614,588L616,587L619,582L616,581L612,576L611,574L612,572L619,572L619,572L619,571L622,570L623,571L624,569L623,567L620,566L615,562L614,561L611,557L614,556L616,554L613,552L614,550L620,548L620,545L623,542L626,544L630,543L630,539L627,532L627,532L627,532L626,531L623,526L620,528L619,528L617,530L615,531L610,534L608,529L608,527L610,525L602,519L602,519Z " data-id="35" data-name="Hemmingen, Stadt" id="35"/><path d="M627,532L627,532L630,539L630,543L626,544L623,542L620,545L620,548L614,550L613,552L616,554L614,556L611,557L614,561L615,562L620,566L623,567L624,569L623,571L622,570L619,571L619,572L619,572L623,579L627,582L630,580L630,576L632,574L635,574L634,573L634,570L637,568L637,567L637,567L637,566L637,562L634,562L634,560L632,562L630,561L627,561L629,559L632,557L632,555L637,553L639,550L642,551L643,550L646,550L649,549L649,550L654,552L655,550L657,550L657,545L666,544L669,542L669,541L674,542L676,540L676,540L674,544L681,545L682,544L682,544L682,542L683,541L688,540L687,539L689,539L691,537L692,533L691,528L691,528L691,528L688,521L680,523L679,524L676,525L669,525L668,522L666,521L665,519L666,518L665,515L659,517L660,520L657,521L654,519L654,519L652,519L651,519L649,522L650,530L647,532L648,534L645,537L639,536L637,533L634,532L633,530L632,531L627,532L627,532Z " data-id="29" data-name="Laatzen, Stadt" id="29"/><path d="M582,417L582,417L582,422L582,425L579,429L579,429L574,427L574,426L568,424L568,423L566,424L559,431L554,431L552,432L545,434L542,441L543,443L548,446L548,449L541,451L541,451L542,452L538,451L531,453L527,454L524,457L522,458L523,463L524,464L525,467L527,467L526,473L525,473L526,477L524,479L521,477L521,479L525,482L526,481L529,490L533,491L535,490L540,489L543,488L544,490L548,491L550,492L546,492L546,495L542,497L537,502L536,507L536,507L536,507L542,509L545,507L548,506L548,505L553,501L555,503L558,515L557,516L560,516L560,516L560,516L565,512L568,508L569,505L574,499L574,497L575,496L574,496L571,492L572,490L571,489L574,487L574,484L576,482L575,480L578,479L579,475L589,474L588,473L592,471L597,470L597,467L594,462L593,457L591,447L591,446L596,444L601,441L605,437L607,438L607,437L606,436L602,429L603,426L602,425L599,424L599,422L595,421L595,418L594,417L592,412L585,413L582,416L582,417Z " data-id="33" data-name="Neustadt am Rübenberge, Stadt" id="33"/><path d="M541,451L541,451L539,450L535,447L535,444L534,443L531,443L530,441L530,439L528,435L525,434L521,435L520,435L516,438L514,438L509,434L506,429L506,425L504,422L498,424L496,422L494,418L491,418L492,416L488,415L483,415L482,414L477,413L477,413L476,413L475,413L474,418L471,417L470,416L467,420L467,419L460,421L460,424L451,424L449,424L447,427L447,428L444,426L441,425L441,423L438,421L430,422L430,419L427,419L425,422L425,421L419,421L418,419L415,416L413,416L410,412L407,412L405,406L404,406L401,406L400,404L398,404L398,407L399,409L397,409L396,411L397,415L395,420L398,421L398,422L401,422L400,424L398,425L399,427L398,428L398,431L396,431L394,435L393,435L387,437L386,437L380,438L378,439L378,441L377,448L373,451L370,456L371,461L371,461L377,464L382,466L401,456L403,458L406,461L408,460L409,463L411,466L412,475L412,475L413,492L412,493L412,498L412,502L413,503L415,501L419,505L428,501L441,504L442,503L444,503L448,503L450,500L458,501L458,500L459,496L461,496L465,493L468,491L468,489L469,487L467,485L475,482L478,475L480,475L482,469L487,469L489,470L492,470L494,473L499,475L497,480L493,483L492,489L494,491L493,494L496,495L496,502L490,507L491,512L489,514L488,517L486,519L486,519L491,519L493,522L494,526L497,527L497,526L500,525L500,526L505,524L507,522L509,523L510,520L517,520L517,519L521,522L520,524L520,527L523,529L524,525L529,531L535,527L538,526L537,516L536,507L536,507L536,507L537,502L542,497L546,495L546,492L550,492L548,491L544,490L543,488L540,489L535,490L533,491L529,490L526,481L525,482L521,479L521,477L524,479L526,477L525,473L526,473L527,467L525,467L524,464L523,463L522,458L524,457L527,454L531,453L538,451L542,452L541,451Z " data-id="39" data-name="Binnen" id="39"/><path d="M477,413L477,413L482,414L483,415L488,415L492,416L491,418L494,418L496,422L498,424L504,422L506,425L506,429L509,434L514,438L516,438L520,435L521,435L525,434L528,435L530,439L530,441L531,443L534,443L535,444L535,447L539,450L541,451L541,451L541,451L548,449L548,446L543,443L542,441L545,434L552,432L554,431L559,431L566,424L568,423L568,424L574,426L574,427L579,429L579,429L582,425L582,422L582,417L582,417L581,417L580,417L577,411L576,411L576,406L576,403L571,402L571,394L569,394L555,393L555,392L549,391L548,393L544,398L541,398L542,395L545,394L543,388L543,386L540,380L540,380L540,380L540,378L536,378L535,375L536,370L535,370L537,366L536,365L533,365L533,363L530,366L529,368L526,369L523,366L522,362L520,362L519,364L515,364L514,363L519,354L519,352L513,350L511,349L517,345L518,345L510,337L509,335L507,337L503,337L499,336L497,334L492,333L491,334L488,327L483,328L482,326L481,327L480,326L477,326L475,328L473,335L471,338L469,337L468,335L465,338L465,338L465,339L464,339L461,343L458,344L453,347L450,349L452,354L451,355L452,358L451,362L451,362L451,362L452,367L452,367L452,375L452,382L451,382L453,386L455,385L460,389L461,391L465,390L467,392L471,388L474,390L476,395L475,398L477,399L478,402L479,403L477,409L477,412L477,413Z " data-id="40" data-name="Bücken, Flecken" id="40"/><path d="M418,285L414,287L412,287L412,291L409,292L407,296L407,296L407,296L408,296L404,303L405,305L404,307L406,311L407,310L413,310L412,312L412,319L413,323L412,327L409,328L408,326L405,327L403,334L402,334L404,337L402,339L402,342L400,346L401,348L401,349L401,350L405,355L407,359L410,362L414,362L414,368L413,368L418,372L418,375L421,375L421,374L421,370L422,370L424,372L429,374L429,375L433,375L435,372L434,369L436,365L438,360L439,358L443,357L444,360L448,360L451,362L451,362L451,362L452,358L451,355L452,354L450,349L453,347L458,344L461,343L464,339L465,339L465,338L465,338L464,333L461,324L457,315L456,311L458,306L460,307L461,305L462,301L459,297L458,297L454,295L453,293L450,290L449,287L449,293L441,293L440,293L438,289L432,287L430,282L429,282L427,285L427,286L424,286L423,287L421,287L418,285L418,285Z " data-id="41" data-name="Weyhe" id="41"/><path d="M371,461L370,456L373,451L377,448L378,441L378,439L380,438L386,437L387,437L393,435L394,435L396,431L398,431L398,428L399,427L398,425L400,424L401,422L398,422L398,421L395,420L397,415L396,411L397,409L399,409L398,407L398,404L400,404L401,406L404,406L405,406L407,412L410,412L413,416L415,416L418,419L419,421L425,421L425,422L427,419L430,419L430,422L438,421L441,423L441,425L444,426L447,428L447,427L449,424L451,424L460,424L460,421L467,419L467,420L470,416L471,417L474,418L475,413L476,413L477,413L477,412L477,409L479,403L478,402L477,399L475,398L476,395L474,390L471,388L467,392L465,390L461,391L460,389L455,385L453,386L451,382L452,382L452,375L452,367L452,367L451,362L451,362L451,362L448,360L444,360L443,357L439,358L438,360L436,365L434,369L435,372L433,375L429,375L429,374L424,372L422,370L421,370L421,374L421,375L418,375L418,372L413,368L414,368L414,362L410,362L407,359L405,355L401,350L401,349L400,349L399,349L381,355L383,359L380,360L380,361L377,362L377,363L370,366L365,365L365,365L365,365L363,370L366,374L365,378L367,384L365,387L361,390L354,390L340,400L338,402L334,401L333,403L333,408L331,411L330,417L332,435L333,437L337,438L338,441L338,441L338,441L338,443L340,446L340,448L339,450L332,452L331,464L331,464L331,465L330,469L330,470L328,479L328,479L334,480L337,480L339,482L341,484L344,483L346,482L351,483L352,483L353,482L359,479L361,474L364,466L366,466L371,461L371,461Z " data-id="42" data-name="Marl" id="42"/><path d="M339,246L339,246L335,251L334,252L333,258L332,261L332,264L328,265L321,268L315,265L317,259L316,258L311,259L302,260L302,260L302,260L297,261L287,271L288,272L286,275L286,275L286,275L288,277L290,283L290,284L298,295L300,296L313,296L317,296L321,295L326,291L328,294L329,293L336,297L338,299L338,303L340,302L342,306L340,310L343,317L346,318L347,320L348,319L350,320L350,322L352,322L355,324L357,327L363,329L365,329L370,330L367,337L369,342L368,343L370,347L370,353L368,357L368,357L368,358L368,362L367,363L365,364L365,365L365,365L370,366L377,363L377,362L380,361L380,360L383,359L381,355L399,349L400,349L401,349L401,348L400,346L402,342L402,339L404,337L402,334L403,334L405,327L408,326L409,328L412,327L413,323L412,319L412,312L413,310L407,310L406,311L404,307L405,305L404,303L408,296L407,296L407,296L407,296L404,297L401,293L398,296L399,298L394,303L391,298L394,295L396,290L397,288L393,286L394,279L398,278L399,276L402,274L403,271L401,270L403,266L404,266L403,266L399,263L395,259L392,258L390,260L379,255L378,256L376,255L378,257L378,258L369,251L363,255L357,257L356,251L354,241L355,240L344,243L342,243L339,246L339,246Z " data-id="64" data-name="Hude (Oldenburg)" id="64"/><path d="M317,229L317,229L314,227L315,226L313,222L310,222L311,219L312,218L309,215L309,213L310,213L312,210L309,211L313,208L308,205L306,207L302,204L303,199L302,198L302,193L303,191L300,189L303,187L304,185L304,185L304,185L297,183L296,183L292,181L286,186L285,188L285,191L279,192L278,191L273,192L272,191L271,184L268,185L257,176L256,176L256,177L249,194L248,196L230,212L225,213L224,214L218,218L217,222L221,232L221,232L221,232L222,234L225,234L226,235L233,235L233,234L240,235L241,235L244,238L248,239L246,242L247,244L244,246L249,251L253,257L256,254L259,256L259,257L263,261L264,263L264,265L269,266L268,269L274,270L275,271L279,270L286,275L286,275L286,275L288,272L287,271L297,261L302,260L302,260L302,259L302,257L303,253L305,251L306,246L308,245L308,241L309,237L311,234L313,235L316,232L317,229L317,229Z " data-id="72" data-name="Apen" id="72"/><path d="M197,272L198,272L201,275L217,287L217,292L218,292L218,301L217,302L220,307L222,307L223,311L232,315L238,318L239,322L237,324L237,325L237,325L239,325L242,325L249,322L256,319L256,318L259,316L260,317L262,323L266,324L272,329L272,333L277,334L276,333L280,326L279,323L280,321L283,321L284,322L284,329L285,331L288,330L293,328L295,320L297,319L305,321L305,322L305,327L309,331L311,332L315,337L319,340L320,340L323,339L325,339L325,339L325,339L329,337L334,338L339,336L341,338L344,345L345,347L349,346L351,348L355,348L352,355L359,356L360,356L363,358L368,357L368,357L368,357L370,353L370,347L368,343L369,342L367,337L370,330L365,329L363,329L357,327L355,324L352,322L350,322L350,320L348,319L347,320L346,318L343,317L340,310L342,306L340,302L338,303L338,299L336,297L329,293L328,294L326,291L321,295L317,296L313,296L300,296L298,295L290,284L290,283L288,277L286,275L286,275L286,275L279,270L275,271L274,270L268,269L269,266L264,265L264,263L263,261L259,257L259,256L256,254L253,257L249,251L244,246L247,244L246,242L248,239L244,238L241,235L240,235L233,234L233,235L226,235L225,234L222,234L221,232L221,232L220,232L216,232L213,231L210,232L208,230L207,230L205,234L206,234L203,253L201,253L197,272L197,272Z " data-id="66" data-name="Barßel" id="66"/><path d="M325,339L325,339L323,339L320,340L319,340L315,337L311,332L309,331L305,327L305,322L305,321L297,319L295,320L293,328L288,330L285,331L284,329L284,322L283,321L280,321L279,323L280,326L276,333L277,334L272,333L272,329L266,324L262,323L260,317L259,316L256,318L256,319L249,322L242,325L239,325L237,325L237,325L237,325L232,331L230,334L228,336L219,340L215,342L213,349L210,355L210,356L208,359L208,359L208,359L208,361L214,370L214,371L208,374L208,376L201,379L200,379L197,383L202,389L202,391L204,393L206,394L205,395L207,399L207,399L207,399L222,401L229,397L229,394L231,393L241,391L245,393L248,395L252,398L252,399L254,401L261,397L262,398L265,396L269,398L274,401L274,401L274,400L276,394L286,394L285,392L282,392L280,390L284,377L292,378L294,372L302,374L304,372L307,374L311,376L312,373L311,372L313,366L317,367L322,360L320,353L321,349L322,347L323,342L325,339L325,339Z " data-id="67" data-name="Cappeln (Oldenburg)" id="67"/><path d="M274,401L275,401L277,405L280,411L282,413L285,415L287,421L286,423L285,426L280,432L279,434L284,440L287,446L289,448L289,449L291,449L291,450L290,451L292,453L298,455L299,452L304,449L307,445L310,443L314,444L314,443L319,443L321,442L319,441L319,439L321,440L324,439L328,439L330,438L333,438L337,441L338,441L338,441L337,438L333,437L332,435L330,417L331,411L333,408L333,403L334,401L338,402L340,400L354,390L361,390L365,387L367,384L365,378L366,374L363,370L365,365L365,365L365,364L367,363L368,362L368,358L368,357L368,357L363,358L360,356L359,356L352,355L355,348L351,348L349,346L345,347L344,345L341,338L339,336L334,338L329,337L325,339L325,339L325,339L323,342L322,347L321,349L320,353L322,360L317,367L313,366L311,372L312,373L311,376L307,374L304,372L302,374L294,372L292,378L284,377L280,390L282,392L285,392L286,394L276,394L274,400L274,401Z " data-id="68" data-name="Bakum" id="68"/><path d="M301,81L300,79L298,78L292,80L290,77L289,73L288,63L290,58L286,56L283,56L279,54L263,53L258,54L248,55L247,54L247,58L250,68L250,77L251,77L250,81L248,81L249,85L253,85L254,88L254,92L251,95L252,97L254,97L254,100L253,99L252,101L249,103L247,109L248,109L248,113L245,118L247,125L253,122L259,121L263,122L265,122L269,123L267,130L267,131L267,134L270,133L269,136L272,136L275,140L273,144L274,146L271,147L258,155L251,160L254,168L254,168L254,168L255,173L255,173L256,175L256,176L257,176L268,185L271,184L272,191L273,192L278,191L279,192L285,191L285,188L286,186L292,181L296,183L297,183L304,185L304,185L305,185L309,183L312,178L314,177L317,177L320,172L319,168L321,165L321,164L319,161L319,159L319,158L313,149L309,144L306,144L300,146L295,139L293,134L293,125L293,125L291,122L289,118L288,115L288,114L289,113L290,110L287,110L288,109L286,108L287,106L289,105L290,106L290,104L288,101L285,98L284,94L283,92L283,90L288,88L291,84L293,86L301,82L301,81Z M264,28L257,28L255,30L258,35L259,29L270,33L274,32L278,35L278,34L273,30L264,28Z " data-id="70" data-name="Jever, Stadt" id="70"/><path d="M64,75L65,74L64,72L65,70L67,68L62,65L58,67L59,70L59,73L64,75Z M225,172L225,172L243,167L246,169L246,172L252,169L254,168L254,168L251,160L258,155L271,147L274,146L273,144L275,140L272,136L269,136L270,133L267,134L267,131L267,130L269,123L265,122L263,122L259,121L253,122L247,125L245,118L248,113L248,109L247,109L249,103L252,101L253,99L254,100L254,97L252,97L251,95L254,92L254,88L253,85L249,85L248,81L250,81L251,77L250,77L250,68L247,58L247,54L246,54L242,55L242,56L238,57L228,58L225,57L222,57L216,59L204,62L203,63L188,66L180,61L173,60L163,60L157,60L157,59L148,60L148,60L148,70L147,72L148,73L147,76L151,79L151,79L151,79L159,76L159,78L163,77L164,80L165,78L169,85L167,90L167,90L165,94L166,95L167,104L165,108L168,111L170,109L177,108L180,107L193,106L207,104L213,108L214,112L212,114L211,115L217,124L216,137L210,137L209,143L213,144L216,141L216,141L217,145L218,146L213,149L214,151L217,150L219,152L215,156L216,157L213,158L213,161L216,159L218,161L215,162L214,164L216,164L213,171L215,172L220,172L225,170L225,172L225,172Z M200,37L184,37L182,38L178,42L178,47L180,49L182,48L184,47L186,46L185,44L187,42L193,42L200,41L211,41L206,38L200,37Z M165,43L161,44L158,47L164,49L172,49L171,45L165,43Z M231,31L226,31L223,31L221,34L218,38L219,40L221,40L225,37L235,38L244,35L245,36L248,34L247,33L231,31Z M97,56L90,57L72,58L60,60L59,60L58,61L66,62L71,62L76,60L82,60L84,61L93,59L100,59L104,60L105,59L102,57L97,56Z M152,46L133,46L125,45L121,46L113,50L113,50L116,54L118,52L118,53L119,50L120,50L121,53L124,53L126,51L134,52L140,52L150,51L153,49L154,49L152,46Z " data-id="87" data-name="Nordseeinsel Memmert, gemfr. Gebiet" id="87"/><path d="M151,79L151,79L147,76L148,73L147,72L148,70L148,60L148,60L139,63L134,64L129,67L121,73L119,76L115,79L116,76L114,81L106,87L102,92L101,95L106,103L109,105L110,106L108,110L104,110L102,111L103,114L104,115L103,117L101,114L100,112L97,111L95,110L93,106L90,106L90,110L92,115L87,123L87,125L83,143L83,159L80,164L81,167L85,173L91,173L97,174L114,175L117,172L116,175L123,176L128,177L132,178L130,180L130,180L137,181L139,179L141,171L141,171L141,171L140,169L142,167L142,166L136,162L136,161L137,159L135,153L138,150L138,145L136,145L134,142L132,141L130,137L130,136L129,134L127,135L124,137L121,137L121,136L120,135L121,134L120,133L119,130L120,128L118,125L121,125L124,121L122,117L120,114L122,111L124,107L123,105L125,105L126,103L133,102L132,101L140,100L143,102L148,102L143,97L144,95L149,97L150,87L151,87L152,83L151,79L151,79Z " data-id="85" data-name="Emden, Stadt" id="85"/><path d="M184,173L184,173L189,172L192,176L196,177L198,176L199,178L200,180L204,180L205,178L210,176L211,178L218,175L223,174L225,172L225,172L225,172L225,170L220,172L215,172L213,171L216,164L214,164L215,162L218,161L216,159L213,161L213,158L216,157L215,156L219,152L217,150L214,151L213,149L218,146L217,145L216,141L216,141L213,144L209,143L210,137L216,137L217,124L211,115L212,114L214,112L213,108L207,104L193,106L180,107L177,108L170,109L168,111L165,108L167,104L166,95L165,94L167,90L167,90L169,85L165,78L164,80L163,77L159,78L159,76L151,79L151,79L151,79L152,83L151,87L150,87L149,97L144,95L143,97L148,102L143,102L140,100L132,101L133,102L126,103L125,105L123,105L124,107L122,111L120,114L122,117L124,121L121,125L118,125L120,128L119,130L120,133L121,134L120,135L121,136L121,137L124,137L127,135L129,134L130,136L130,137L132,141L134,142L136,145L138,145L138,150L135,153L137,159L136,161L136,162L142,166L142,167L140,169L141,171L141,171L141,171L144,170L144,168L145,168L145,165L146,168L149,169L149,166L151,166L151,168L149,169L152,169L154,173L159,171L162,172L166,170L169,169L172,166L177,166L181,170L183,172L184,172L184,173Z " data-id="86" data-name="Ihlow" id="86"/><path d="M184,173L184,172L183,172L181,170L177,166L172,166L169,169L166,170L162,172L159,171L154,173L152,169L149,169L151,168L151,166L149,166L149,169L146,168L145,165L145,168L144,168L144,170L141,171L141,171L141,171L139,179L137,181L130,180L129,180L126,187L124,189L126,191L124,200L120,211L119,211L120,220L120,222L118,225L122,227L117,230L114,238L112,243L112,246L116,250L116,250L125,249L130,250L133,250L139,252L141,251L142,255L143,255L147,254L151,256L156,256L157,257L156,259L170,261L174,264L174,265L174,264L178,250L178,247L175,240L176,234L178,231L180,225L179,219L173,221L172,222L171,219L164,218L161,220L158,222L151,219L151,217L153,214L157,213L159,212L157,209L157,204L158,198L161,197L166,197L170,199L179,198L183,193L185,195L190,189L191,185L189,186L188,182L186,180L184,173L184,173Z M41,78L37,76L32,76L24,80L16,81L16,87L22,92L26,95L28,92L33,96L33,92L29,88L27,88L33,85L35,84L39,83L41,84L44,80L41,78Z " data-id="84" data-name="Weener, Stadt" id="84"/><path d="M221,232L221,232L217,222L218,218L224,214L225,213L230,212L248,196L249,194L256,177L256,176L256,175L255,173L255,173L254,168L254,168L252,169L246,172L246,169L243,167L225,172L225,172L225,172L223,174L218,175L211,178L210,176L205,178L204,180L200,180L199,178L198,176L196,177L192,176L189,172L184,173L184,173L184,173L186,180L188,182L189,186L191,185L190,189L185,195L183,193L179,198L170,199L166,197L161,197L158,198L157,204L157,209L159,212L157,213L153,214L151,217L151,219L158,222L161,220L164,218L171,219L172,222L173,221L179,219L180,225L178,231L176,234L175,240L178,247L178,250L174,264L174,265L174,265L179,272L182,278L183,279L187,279L189,277L197,272L197,272L197,272L201,253L203,253L206,234L205,234L207,230L208,230L210,232L213,231L216,232L220,232L221,232Z " data-id="83" data-name="Ostrhauderfehn" id="83"/><path d="M208,359L208,359L210,356L210,355L213,349L215,342L219,340L228,336L230,334L232,331L237,325L237,325L237,324L239,322L238,318L232,315L223,311L222,307L220,307L217,302L218,301L218,292L217,292L217,287L201,275L198,272L197,272L197,272L189,277L187,279L183,279L182,278L179,272L174,265L174,265L174,264L170,261L156,259L157,257L156,256L151,256L147,254L143,255L142,255L141,251L139,252L133,250L130,250L125,249L116,250L116,251L115,260L116,284L115,287L109,307L96,327L95,327L105,327L104,330L101,336L102,337L101,340L107,342L108,341L114,343L119,345L126,346L128,346L131,349L133,349L134,347L136,344L139,346L149,346L148,352L143,363L138,367L137,369L136,369L139,378L142,377L144,371L149,369L151,369L155,368L160,377L159,383L160,384L162,378L166,375L172,373L178,370L180,370L186,366L186,366L196,361L205,361L208,359L208,359Z " data-id="82" data-name="Klein Berßen" id="82"/><path d="M207,399L207,399L205,395L206,394L204,393L202,391L202,389L197,383L200,379L201,379L208,376L208,374L214,371L214,370L208,361L208,359L208,359L208,359L205,361L196,361L186,366L186,366L180,370L178,370L172,373L166,375L162,378L160,384L159,383L160,377L155,368L151,369L149,369L144,371L142,377L139,378L136,369L137,369L138,367L143,363L148,352L149,346L139,346L136,344L134,347L133,349L131,349L128,346L126,346L119,345L114,343L108,341L107,342L101,340L102,337L101,336L104,330L105,327L95,327L95,328L90,334L88,338L89,341L84,349L78,402L75,409L68,406L68,406L67,407L65,417L72,414L74,415L75,421L76,420L83,420L86,423L88,424L89,421L91,423L95,425L96,430L98,430L98,435L105,438L105,438L105,438L112,436L111,435L117,433L117,430L116,428L119,427L123,427L127,425L135,424L136,424L141,423L143,422L145,428L145,430L147,433L148,437L148,439L149,441L150,444L153,446L157,453L156,457L160,453L166,454L168,452L179,448L181,447L191,446L191,446L191,446L190,444L192,430L190,420L201,409L208,405L207,399L207,399Z " data-id="81" data-name="Wettrup" id="81"/><path d="M105,438L105,438L106,442L117,441L119,447L120,448L122,452L122,453L117,453L118,456L121,456L121,457L120,460L118,461L120,466L108,473L107,473L103,476L92,486L90,488L90,489L97,493L99,495L82,501L81,503L82,507L85,510L86,512L88,510L90,510L93,509L94,512L101,515L102,517L103,517L102,519L100,519L103,534L103,534L120,535L121,535L126,529L131,529L135,527L137,523L140,520L142,522L143,521L148,519L151,513L160,509L165,505L168,503L169,502L172,501L173,502L175,502L179,499L181,496L182,491L186,487L186,485L178,481L180,481L181,476L188,467L188,467L189,461L187,460L189,459L191,446L191,446L191,446L181,447L179,448L168,452L166,454L160,453L156,457L157,453L153,446L150,444L149,441L148,439L148,437L147,433L145,430L145,428L143,422L141,423L136,424L135,424L127,425L123,427L119,427L116,428L117,430L117,433L111,435L112,436L105,438L105,438Z " data-id="80" data-name="Lingen (Ems), Stadt" id="80"/><path d="M105,438L105,438L98,435L98,430L96,430L95,425L91,423L89,421L88,424L86,423L83,420L76,420L75,421L74,415L72,414L65,417L67,407L68,406L68,406L62,404L58,406L53,405L50,404L50,403L45,401L43,401L41,400L40,401L37,401L33,400L31,401L28,401L27,400L20,401L18,400L15,401L11,405L8,407L11,410L11,412L9,420L18,429L18,430L12,429L10,429L8,433L1,431L5,443L3,454L8,457L11,460L18,464L34,465L34,468L42,470L51,474L56,471L59,466L61,463L63,464L65,471L65,477L70,486L71,486L75,488L76,490L77,501L77,503L73,507L73,510L66,523L66,527L69,535L73,540L81,539L82,538L84,535L85,534L92,532L102,533L103,534L100,519L102,519L103,517L102,517L101,515L94,512L93,509L90,510L88,510L86,512L85,510L82,507L81,503L82,501L99,495L97,493L90,489L90,488L92,486L103,476L107,473L108,473L120,466L118,461L120,460L121,457L121,456L118,456L117,453L122,453L122,452L120,448L119,447L117,441L106,442L105,438L105,438Z " data-id="79" data-name="Bad Bentheim, Stadt" id="79"/><path d="M274,401L274,401L269,398L265,396L262,398L261,397L254,401L252,399L252,398L248,395L245,393L241,391L231,393L229,394L229,397L222,401L207,399L207,399L207,399L208,405L201,409L190,420L192,430L190,444L191,446L191,446L191,446L189,459L187,460L189,461L188,467L188,467L196,472L198,472L200,474L203,474L207,482L207,483L211,493L227,503L234,504L238,503L244,501L244,501L244,497L243,493L241,492L241,490L242,489L242,485L240,482L239,475L236,471L237,467L241,467L244,469L248,470L253,473L255,476L257,476L263,472L267,475L270,475L272,476L275,475L277,476L278,476L280,481L286,480L295,482L296,484L300,486L304,480L304,477L306,476L309,470L311,471L318,470L321,469L331,464L331,464L331,464L332,452L339,450L340,448L340,446L338,443L338,441L338,441L337,441L333,438L330,438L328,439L324,439L321,440L319,439L319,441L321,442L319,443L314,443L314,444L310,443L307,445L304,449L299,452L298,455L292,453L290,451L291,450L291,449L289,449L289,448L287,446L284,440L279,434L280,432L285,426L286,423L287,421L285,415L282,413L280,411L277,405L275,401L274,401Z " data-id="73" data-name="Badbergen" id="73"/><path d="M347,504L345,503L340,501L337,499L335,498L333,492L333,489L330,483L328,479L328,479L330,470L330,469L331,465L331,464L331,464L321,469L318,470L311,471L309,470L306,476L304,477L304,480L300,486L296,484L295,482L286,480L280,481L278,476L277,476L275,475L272,476L270,475L267,475L263,472L257,476L255,476L253,473L248,470L244,469L241,467L237,467L236,471L239,475L240,482L242,485L242,489L241,490L241,492L243,493L244,497L244,501L245,501L253,507L255,510L254,512L257,512L256,517L259,520L259,521L267,517L269,518L270,521L272,523L278,524L281,524L286,523L286,527L290,533L293,531L297,531L298,532L302,534L302,536L302,536L302,536L304,536L308,532L306,530L307,526L308,525L313,527L315,524L318,525L318,527L323,529L326,529L325,522L327,519L327,517L329,515L334,514L336,509L339,510L340,511L347,504L347,504Z " data-id="75" data-name="Ostercappeln" id="75"/><path d="M302,536L302,536L300,538L299,540L298,540L297,542L295,543L293,542L290,543L292,546L291,546L292,550L292,552L292,553L292,553L293,555L295,556L295,559L294,561L291,563L291,568L292,570L289,572L286,575L286,576L287,581L286,584L289,587L290,591L296,589L300,593L301,595L299,601L301,603L299,606L299,606L300,607L303,606L304,601L306,598L314,590L317,591L318,587L323,586L322,587L328,591L335,592L337,592L340,595L345,596L346,595L347,592L347,588L349,585L353,584L357,580L358,581L362,579L365,577L368,572L370,572L367,569L361,568L358,566L355,561L357,559L357,557L359,555L359,551L361,550L359,546L361,543L360,537L360,533L359,530L361,531L362,527L360,526L358,520L357,514L355,510L354,510L349,506L347,504L347,504L340,511L339,510L336,509L334,514L329,515L327,517L327,519L325,522L326,529L323,529L318,527L318,525L315,524L313,527L308,525L307,526L306,530L308,532L304,536L302,536L302,536Z " data-id="74" data-name="Bissendorf" id="74"/><path d="M299,606L301,603L299,601L301,595L300,593L296,589L290,591L289,587L286,584L287,581L286,576L286,575L289,572L292,570L291,568L291,563L294,561L295,559L295,556L293,555L292,553L292,553L291,553L288,553L289,556L286,557L284,551L282,549L275,551L272,553L272,554L268,552L266,550L262,550L257,546L257,542L258,541L257,537L256,538L256,538L249,544L250,548L249,553L248,554L245,559L244,559L245,565L250,569L255,569L259,572L265,570L267,573L269,575L268,576L265,576L264,579L264,580L265,591L257,590L254,594L252,595L242,598L239,600L240,601L246,609L245,611L258,617L263,611L266,610L270,607L270,608L276,607L281,609L283,611L289,607L290,607L294,605L299,606L299,606Z " data-id="76" data-name="Glandorf" id="76"/><path d="M500,604L503,603L503,600L503,598L509,601L511,601L515,602L517,601L517,600L514,600L517,599L519,599L521,596L524,599L524,602L525,606L528,609L531,609L534,611L536,615L536,619L537,620L537,616L539,617L538,615L540,614L544,611L541,615L545,618L549,618L552,615L558,615L558,612L560,611L559,607L559,603L561,601L564,596L561,591L559,590L556,590L556,585L553,583L552,583L548,580L547,576L542,573L542,572L538,570L536,566L536,566L536,565L531,564L529,564L526,566L524,565L521,567L521,566L514,568L514,566L509,564L505,565L499,562L494,563L490,563L482,561L482,562L477,561L479,565L479,570L479,575L475,574L473,573L472,570L471,572L468,570L467,570L469,573L471,576L473,579L473,584L471,590L473,591L476,589L478,589L480,586L483,586L483,589L489,590L491,592L493,590L495,590L495,591L498,591L500,593L501,597L497,601L497,605L498,603L500,604L500,604Z M560,617L557,618L557,621L554,620L554,622L558,622L560,620L561,619L560,617Z " data-id="38" data-name="Rinteln, Stadt" id="38"/><path d="M500,604L507,612L508,613L506,614L504,617L504,621L504,624L507,629L509,633L507,633L505,636L507,639L505,642L506,647L509,649L511,650L511,648L515,646L521,644L522,645L522,646L524,647L526,652L525,652L522,655L523,656L523,659L528,664L531,663L531,663L531,661L540,659L543,657L542,653L538,651L538,650L539,646L542,646L547,645L549,645L560,642L560,641L564,638L567,637L572,631L577,631L579,631L578,625L582,625L585,624L590,635L593,640L597,644L601,650L601,650L601,650L601,647L600,645L599,642L602,638L600,636L601,632L602,632L604,628L602,622L601,620L602,618L603,615L607,607L609,604L607,603L605,602L603,601L601,599L601,597L598,595L598,595L598,595L595,593L594,591L591,590L586,584L582,582L575,584L573,584L571,580L572,576L572,569L571,568L575,569L573,563L574,564L571,558L570,556L567,555L565,552L567,549L567,549L567,549L563,547L562,546L562,546L562,546L560,551L556,552L555,554L550,554L550,557L548,557L547,560L546,560L545,563L542,562L541,561L539,562L538,565L536,566L536,566L536,566L538,570L542,572L542,573L547,576L548,580L552,583L553,583L556,585L556,590L559,590L561,591L564,596L561,601L559,603L559,607L560,611L558,612L558,615L552,615L549,618L545,618L541,615L544,611L540,614L538,615L539,617L537,616L537,620L536,619L536,615L534,611L531,609L528,609L525,606L524,602L524,599L521,596L519,599L517,599L514,600L517,600L517,601L515,602L511,601L509,601L503,598L503,600L503,603L500,604L500,604Z M560,617L561,619L560,620L558,622L554,622L554,620L557,621L557,618L560,617Z " data-id="36" data-name="Aerzen, Flecken" id="36"/><path d="M652,671L652,671L650,668L645,666L643,662L640,663L635,656L631,653L630,653L628,652L627,646L625,645L619,646L615,644L614,650L612,650L609,653L604,649L601,650L601,650L601,650L597,644L593,640L590,635L585,624L582,625L578,625L579,631L577,631L572,631L567,637L564,638L560,641L560,642L549,645L547,645L542,646L539,646L538,650L538,651L542,653L543,657L540,659L531,661L531,663L531,663L536,665L538,675L538,678L537,680L536,685L542,683L547,684L560,685L562,686L556,691L557,696L555,701L557,705L559,706L557,709L557,709L552,713L550,717L548,718L545,718L546,721L544,723L544,725L547,727L546,730L547,734L549,736L545,741L547,745L547,747L544,748L544,750L543,755L545,756L551,756L551,756L556,753L556,752L554,751L553,747L556,746L556,741L557,739L564,735L571,729L574,727L582,724L583,719L583,718L584,717L586,715L586,708L590,705L596,700L600,698L600,696L601,693L608,692L609,689L608,687L609,685L614,681L615,678L616,678L620,680L624,683L630,684L633,678L646,674L648,670L650,670L652,672L651,671L652,671Z " data-id="20" data-name="Arholzen" id="20"/><path d="M691,528L691,528L692,533L691,537L689,539L687,539L688,540L683,541L682,542L682,544L682,544L682,544L681,551L679,552L677,553L675,553L674,561L675,562L684,562L688,565L699,561L702,561L707,564L712,561L714,563L716,563L725,568L726,568L726,569L731,567L731,564L734,559L735,558L736,557L737,553L738,551L738,545L739,545L742,540L742,538L748,538L751,543L753,546L756,544L760,548L763,547L765,546L762,545L762,538L762,536L759,533L762,530L762,529L762,529L759,526L760,526L758,522L762,521L760,518L762,515L762,513L754,516L752,510L751,504L746,495L744,496L740,491L735,490L735,490L735,490L727,494L727,499L725,498L721,496L717,496L716,501L716,502L712,507L709,507L704,507L702,508L702,511L705,513L707,519L703,521L701,521L704,523L704,526L701,526L702,530L699,531L695,528L695,525L692,526L691,528L691,528Z " data-id="04" data-name="Edemissen" id="04"/><path d="M764,598L764,598L764,594L765,593L773,584L778,580L779,578L779,577L778,578L776,575L775,571L771,572L765,572L762,566L758,565L757,568L753,572L751,572L751,574L749,575L748,570L747,570L747,568L744,569L743,568L739,566L737,560L736,560L735,558L735,558L734,559L731,564L731,567L726,569L726,568L726,568L726,571L728,574L729,576L727,577L727,581L725,581L723,583L723,583L722,583L724,591L725,593L722,596L726,602L727,604L729,603L730,605L733,604L733,605L737,606L740,606L743,613L745,623L748,620L755,619L759,617L763,599L763,598L764,598Z " data-id="11" data-name="Salzgitter, Stadt" id="11"/><path d="M840,571L840,572L838,575L838,579L834,579L835,576L832,575L831,577L828,577L830,574L829,573L825,579L825,582L822,583L820,583L819,590L817,590L815,592L811,593L808,591L808,592L805,590L805,586L800,586L798,589L793,591L792,593L793,594L789,595L790,596L784,598L785,598L781,599L779,599L766,598L765,598L764,598L763,598L763,599L762,602L759,617L755,619L748,620L745,623L743,613L740,606L737,606L733,605L733,604L730,605L729,603L727,604L726,602L722,596L725,593L724,591L722,583L723,583L723,581L722,580L720,581L718,580L715,581L713,585L712,590L711,590L711,593L714,593L716,600L714,601L712,601L711,603L713,611L715,615L715,617L714,619L715,624L715,627L716,637L716,637L716,637L720,637L722,638L724,637L727,636L732,631L733,629L734,630L738,629L742,631L742,632L740,634L741,636L741,636L741,636L743,633L745,634L747,633L749,633L752,631L758,630L757,629L762,624L766,621L770,623L770,626L772,630L774,630L774,631L777,633L775,635L773,640L773,643L776,644L777,647L784,650L785,646L790,639L790,639L796,636L797,635L803,638L803,636L806,634L806,633L809,632L807,626L811,626L817,624L823,624L826,624L835,623L839,624L839,624L838,617L837,615L839,610L841,610L844,607L847,607L848,606L846,605L845,603L853,599L853,597L854,593L857,586L856,583L856,580L853,580L852,578L850,578L850,575L846,574L843,575L842,571L841,571L840,571Z " data-id="10" data-name="Uehrde" id="10"/><path d="M676,605L676,605L674,611L670,614L669,614L665,616L667,617L666,620L668,625L669,630L671,631L673,634L677,635L682,644L689,647L692,648L690,649L690,654L690,654L692,654L695,653L701,654L709,654L712,654L715,653L716,651L714,645L714,640L716,638L716,637L716,637L715,627L715,624L714,619L715,617L715,615L713,611L711,603L712,601L714,601L716,600L714,593L711,593L711,590L712,590L713,585L715,581L718,580L720,581L722,580L723,581L723,583L723,583L725,581L727,581L727,577L729,576L728,574L726,571L726,568L726,568L725,568L716,563L714,563L712,561L707,564L702,561L699,561L688,565L684,562L675,562L674,561L675,553L677,553L679,552L681,551L682,544L682,544L681,545L674,544L676,540L676,540L674,542L669,541L669,542L666,544L657,545L657,550L655,550L654,552L649,550L649,549L646,550L643,550L642,551L639,550L637,553L632,555L632,557L629,559L627,561L630,561L632,562L634,560L634,562L637,562L637,566L637,567L637,567L638,567L640,570L643,572L643,572L645,576L644,584L646,585L646,586L646,586L651,586L653,585L653,583L654,577L654,578L658,578L659,576L664,575L668,577L670,577L670,575L673,578L678,580L682,585L681,591L683,594L681,595L681,596L677,597L676,604L676,605Z " data-id="22" data-name="Bad Salzdetfurth, Stadt" id="22"/><path d="M803,668L801,667L801,664L800,661L803,657L808,656L808,654L805,654L802,654L801,651L799,651L798,648L797,649L795,647L791,640L790,639L785,646L784,650L777,647L776,644L773,643L773,640L775,635L777,633L774,631L774,630L772,630L770,626L770,623L766,621L762,624L757,629L758,630L752,631L749,633L747,633L745,634L743,633L741,636L741,636L741,636L737,641L739,641L737,646L737,652L736,651L729,652L729,654L727,655L728,657L735,658L735,660L739,662L736,667L731,669L730,670L730,673L732,678L729,687L729,687L734,686L736,686L735,684L737,683L733,680L731,677L731,671L732,671L736,674L739,673L741,674L743,667L745,666L747,668L748,673L747,675L747,681L749,682L745,685L743,684L739,687L742,691L745,692L749,689L753,690L762,685L763,683L766,684L766,686L771,679L772,678L774,675L776,673L775,672L776,668L784,662L786,665L793,665L794,669L798,670L800,677L802,677L802,674L803,668L803,668Z M776,663L778,661L781,663L777,667L776,665L776,663Z " data-id="14" data-name="Goslar, Stadt" id="14"/><path d="M741,636L741,636L740,634L742,632L742,631L738,629L734,630L733,629L732,631L727,636L724,637L722,638L720,637L716,637L716,637L716,638L714,640L714,645L716,651L715,653L712,654L709,654L701,654L695,653L692,654L690,654L691,654L689,660L690,661L687,664L687,664L687,664L694,670L695,676L694,677L698,683L697,688L698,690L696,694L697,695L697,695L697,695L701,696L703,697L702,699L702,703L705,706L705,709L705,709L705,709L707,708L707,705L709,703L711,703L714,702L715,698L717,701L720,697L723,696L725,699L728,701L728,708L731,710L730,712L732,714L734,714L738,718L744,717L747,718L752,710L754,710L758,713L760,714L761,716L766,716L768,718L774,718L777,719L773,727L775,730L774,731L774,735L770,742L773,742L778,751L778,753L779,753L781,750L784,751L791,748L799,749L799,752L800,753L802,753L803,751L806,755L807,755L808,760L813,761L813,761L816,758L814,754L811,750L811,746L812,740L811,738L810,736L806,732L806,730L803,721L798,719L796,718L793,713L794,708L792,703L793,697L795,695L793,693L793,691L795,689L798,689L802,684L804,683L808,677L807,671L804,668L803,668L802,674L802,677L800,677L798,670L794,669L793,665L786,665L784,662L776,668L775,672L776,673L774,675L772,678L771,679L766,686L766,684L763,683L762,685L753,690L749,689L745,692L742,691L739,687L743,684L745,685L749,682L747,681L747,675L748,673L747,668L745,666L743,667L741,674L739,673L736,674L732,671L731,671L731,677L733,680L737,683L735,684L736,686L734,686L729,687L729,687L732,678L730,673L730,670L731,669L736,667L739,662L735,660L735,658L728,657L727,655L729,654L729,652L736,651L737,652L737,646L739,641L737,641L741,636L741,636Z M778,661L776,663L776,665L777,667L781,663L778,661Z " data-id="13" data-name="Bad Harzburg, Stadt" id="13"/><path d="M652,671L651,671L652,672L650,670L648,670L646,674L633,678L630,684L624,683L620,680L616,678L615,678L614,681L609,685L608,687L609,689L608,692L601,693L600,696L600,698L596,700L590,705L586,708L586,715L584,717L583,718L583,719L582,724L574,727L571,729L564,735L557,739L556,741L556,746L553,747L554,751L556,752L556,753L551,756L552,756L556,754L559,756L562,754L562,754L568,752L569,758L570,760L571,756L573,754L576,752L578,751L576,747L573,745L569,746L570,743L571,741L570,738L573,741L578,749L579,752L582,753L586,758L587,762L588,762L591,762L595,760L596,764L597,764L597,769L600,770L602,775L607,779L607,779L607,777L614,773L617,768L617,768L617,768L618,763L618,759L622,759L623,757L624,754L620,747L620,744L618,738L617,740L613,742L611,741L610,738L612,734L618,732L619,730L619,728L622,728L627,722L628,720L634,722L639,727L642,728L644,726L646,728L649,729L652,728L652,724L654,721L657,721L661,719L661,716L659,714L660,713L661,715L666,714L665,712L664,711L666,710L669,713L674,710L675,706L673,702L676,699L682,696L683,698L688,695L694,696L697,695L697,695L697,695L696,694L698,690L697,688L698,683L694,677L695,676L694,670L687,664L687,664L687,664L681,658L680,657L676,659L673,660L672,660L676,668L675,670L674,670L672,672L668,673L662,669L658,672L657,670L656,668L652,671L652,671Z M599,789L602,785L604,783L604,783L602,782L599,778L595,780L594,780L597,786L598,786L599,789L599,789Z " data-id="19" data-name="Kreiensen" id="19"/><path d="M697,695L697,695L694,696L688,695L683,698L682,696L676,699L673,702L675,706L674,710L669,713L666,710L664,711L665,712L666,714L661,715L660,713L659,714L661,716L661,719L657,721L654,721L652,724L652,728L649,729L646,728L644,726L642,728L639,727L634,722L628,720L627,722L622,728L619,728L619,730L618,732L612,734L610,738L611,741L613,742L617,740L618,738L620,744L620,747L624,754L623,757L622,759L618,759L618,763L617,768L617,768L617,768L621,769L626,770L629,770L630,769L631,772L634,773L637,771L638,768L643,770L645,769L649,769L657,773L658,772L662,771L663,768L661,766L670,768L675,769L677,768L680,767L680,765L685,770L686,770L687,770L687,770L694,766L695,766L696,769L698,768L700,764L701,760L704,761L706,758L706,758L707,757L705,756L704,752L702,750L705,749L705,747L702,742L702,742L701,739L701,737L697,735L697,731L700,731L700,729L703,725L703,720L704,719L705,714L706,713L705,709L705,709L705,709L705,706L702,703L702,699L703,697L701,696L697,695L697,695Z M562,754L567,752L568,753L567,759L567,760L570,763L574,763L576,761L577,759L580,760L581,763L583,764L588,763L587,762L586,758L582,753L579,752L578,749L573,741L570,738L571,741L570,743L569,746L573,745L576,747L578,751L576,752L573,754L571,756L570,760L569,758L568,752L562,754L562,754Z " data-id="18" data-name="Kalefeld" id="18"/><path d="M748,789L750,788L751,786L751,780L749,778L751,778L757,778L762,777L767,780L771,780L775,783L778,788L779,789L784,788L786,789L796,784L798,781L800,781L803,784L803,784L805,787L807,787L807,788L809,788L810,787L809,785L811,782L805,779L804,773L807,772L806,769L806,767L809,766L812,764L814,764L813,761L813,761L808,760L807,755L806,755L803,751L802,753L800,753L799,752L799,749L791,748L784,751L781,750L779,753L778,753L778,751L773,742L770,742L774,735L774,731L775,730L773,727L777,719L774,718L768,718L766,716L761,716L760,714L758,713L754,710L752,710L747,718L744,717L738,718L734,714L732,714L730,712L731,710L728,708L728,701L725,699L723,696L720,697L717,701L715,698L714,702L711,703L709,703L707,705L707,708L705,709L705,709L705,709L706,713L705,714L704,719L703,720L703,725L700,729L700,731L697,731L697,735L701,737L701,739L702,742L702,742L705,747L705,749L702,750L704,752L705,756L707,757L706,758L706,758L707,761L710,762L711,764L713,765L718,763L722,767L725,767L726,767L731,770L732,769L737,771L737,773L736,776L739,778L739,779L735,785L739,787L744,788L745,788L748,789L748,789Z M736,773L737,774L737,774L736,773Z " data-id="12" data-name="Hörden am Harz" id="12"/><path d="M645,801L650,800L655,803L655,805L658,807L659,810L663,812L663,811L665,808L670,803L672,802L677,800L677,797L683,796L682,792L682,791L680,787L680,787L680,787L677,786L680,781L679,780L675,777L673,776L669,777L661,781L659,781L655,783L654,782L650,783L645,801L645,801Z " data-id="17" data-name="Göttingen, Stadt" id="17"/><path d="M631,836L629,835L622,834L619,830L617,829L616,827L622,828L622,830L623,831L626,829L628,826L631,831L634,831L635,831L638,830L638,827L641,826L639,824L639,822L639,820L638,820L632,812L632,810L634,808L632,803L633,799L634,800L637,801L639,801L642,803L645,801L645,801L650,783L654,782L655,783L659,781L661,781L669,777L673,776L675,777L679,780L680,781L677,786L680,787L680,787L680,787L684,784L684,782L683,779L682,780L681,776L683,774L687,770L687,770L686,770L685,770L680,765L680,767L677,768L675,769L670,768L661,766L663,768L662,771L658,772L657,773L649,769L645,769L643,770L638,768L637,771L634,773L631,772L630,769L629,770L626,770L621,769L617,768L617,768L617,768L614,773L607,777L607,779L607,779L608,781L604,783L604,783L602,785L599,789L599,789L594,789L593,787L591,787L594,792L593,794L590,798L586,800L592,811L594,814L598,816L595,820L594,824L596,831L598,833L594,836L591,837L589,839L586,839L584,838L579,845L583,849L582,851L577,851L581,859L586,860L589,864L592,863L596,866L594,869L595,869L596,866L601,869L602,867L604,870L611,872L613,874L616,874L623,871L624,864L622,865L621,863L618,867L616,866L616,863L613,857L610,853L609,851L614,849L615,850L620,848L621,846L623,844L628,843L630,844L630,843L629,838L631,836L631,836Z " data-id="16" data-name="Hann. Münden, Stadt" id="16"/><path d="M706,758L706,758L704,761L701,760L700,764L698,768L696,769L695,766L694,766L687,770L687,770L687,770L683,774L681,776L682,780L683,779L684,782L684,784L680,787L680,787L680,787L682,791L682,792L683,796L677,797L677,800L672,802L670,803L665,808L663,811L663,812L659,810L658,807L655,805L655,803L650,800L645,801L645,801L645,801L642,803L639,801L637,801L634,800L633,799L632,803L634,808L632,810L632,812L638,820L639,820L639,822L639,824L641,826L638,827L638,830L635,831L634,831L631,831L628,826L626,829L623,831L622,830L622,828L616,827L617,829L619,830L622,834L629,835L631,836L631,836L633,836L636,837L638,839L638,845L640,848L643,849L644,849L642,842L641,838L641,835L646,838L647,839L648,836L652,833L657,843L657,847L659,848L663,843L665,842L668,841L673,837L674,833L677,834L681,833L681,831L684,830L687,834L687,834L689,829L696,830L699,829L703,831L701,827L702,826L705,826L708,825L710,816L712,814L715,812L717,814L717,817L719,816L721,816L723,813L727,812L731,809L735,809L735,804L736,802L743,801L745,796L749,793L748,789L748,789L745,788L744,788L739,787L735,785L739,779L739,778L736,776L737,773L737,771L732,769L731,770L726,767L725,767L722,767L718,763L713,765L711,764L710,762L707,761L706,758L706,758Z M737,774L737,774L736,773L737,774Z " data-id="15" data-name="Bilshausen" id="15"/><path d="M762,529L762,530L765,532L767,530L774,532L774,531L776,529L774,528L773,526L773,524L775,523L776,524L779,521L781,521L783,523L784,530L785,530L785,530L785,530L785,530L785,530L785,530L785,530L788,527L789,525L793,523L800,525L800,525L800,525L802,523L802,520L800,520L801,515L799,515L799,514L802,512L803,510L804,512L808,511L808,513L813,513L812,513L812,513L812,508L810,508L809,498L808,493L808,491L810,490L811,490L813,485L813,485L812,485L808,483L807,486L802,485L803,483L802,482L803,478L804,478L801,476L800,474L795,475L793,472L791,472L790,469L790,465L794,464L794,464L797,457L796,456L796,452L792,451L782,453L780,453L776,449L773,454L771,453L767,454L765,452L762,453L762,453L758,453L757,453L757,453L754,453L754,457L753,455L748,452L747,453L748,454L746,457L744,456L744,459L743,459L739,460L738,462L739,462L738,465L734,463L732,464L734,467L728,467L731,469L731,469L731,469L735,470L733,474L732,477L731,477L733,481L735,482L735,485L737,485L737,487L736,487L735,490L735,490L735,490L740,491L744,496L746,495L751,504L752,510L754,516L762,513L762,515L760,518L762,521L758,522L760,526L759,526L762,529L762,529Z " data-id="06" data-name="Didderse" id="06"/><path d="M839,624L850,623L856,621L873,621L875,615L873,611L872,611L868,608L868,606L874,604L874,605L881,601L884,597L889,595L889,592L892,588L891,587L892,582L884,580L882,577L883,573L885,573L884,571L888,569L889,568L895,566L897,563L895,559L892,559L890,555L891,553L888,549L886,550L882,543L884,541L888,539L887,538L882,530L880,528L877,527L876,526L881,525L881,524L886,524L886,525L894,520L893,517L895,515L888,510L888,511L884,508L883,506L878,502L877,498L872,495L871,491L868,488L866,486L866,482L866,482L860,486L857,486L856,489L857,490L856,493L854,494L857,496L856,496L855,498L858,500L855,501L855,501L857,501L860,503L859,507L855,508L853,510L853,513L855,514L851,518L850,519L855,523L855,525L854,527L851,529L850,532L848,532L847,534L846,531L842,530L840,529L842,528L842,524L840,524L838,527L834,527L827,521L823,521L824,520L822,516L819,516L817,513L813,513L812,513L813,513L808,513L808,511L804,512L803,510L802,512L799,514L799,515L801,515L800,520L802,520L802,523L800,525L800,525L800,525L798,526L800,528L802,527L803,528L803,530L804,532L802,532L801,537L802,538L804,539L806,539L806,540L807,541L807,541L808,540L812,541L822,539L825,542L824,546L825,550L824,553L826,556L826,558L830,561L833,566L834,567L836,571L837,571L840,571L840,571L841,571L842,571L843,575L846,574L850,575L850,578L852,578L853,580L856,580L856,583L857,586L854,593L853,597L853,599L845,603L846,605L848,606L847,607L844,607L841,610L839,610L837,615L838,617L839,624L839,624Z " data-id="08" data-name="Königslutter, gemfr. Gebiet" id="08"/><path d="M807,541L806,541L803,546L801,547L802,552L800,551L800,556L797,556L798,559L798,565L793,572L790,572L788,571L784,576L781,576L779,577L779,577L779,578L778,580L773,584L765,593L764,594L764,598L764,598L765,598L766,598L779,599L781,599L785,598L784,598L790,596L789,595L793,594L792,593L793,591L798,589L800,586L805,586L805,590L808,592L808,591L811,593L815,592L817,590L819,590L820,583L822,583L825,582L825,579L829,573L830,574L828,577L831,577L832,575L835,576L834,579L838,579L838,575L840,572L840,571L840,571L837,571L836,571L834,567L833,566L830,561L826,558L826,556L824,553L825,550L824,546L825,542L822,539L812,541L808,540L807,541L807,541Z " data-id="09" data-name="Am Großen Rhode, gemfr. Gebiet" id="09"/><path d="M652,671L652,671L656,668L657,670L658,672L662,669L668,673L672,672L674,670L675,670L676,668L672,660L673,660L676,659L680,657L681,658L687,664L687,664L687,664L690,661L689,660L691,654L690,654L690,654L690,649L692,648L689,647L682,644L677,635L673,634L671,631L669,630L668,625L666,620L667,617L665,616L669,614L670,614L674,611L676,605L676,605L676,605L671,604L667,600L665,599L657,604L656,608L650,605L650,606L643,596L646,591L645,591L646,586L646,586L646,585L644,584L645,576L643,572L643,572L640,570L638,567L637,567L637,568L634,570L634,573L635,574L632,574L630,576L630,580L627,582L623,579L619,572L619,572L619,572L612,572L611,574L612,576L616,581L619,582L616,587L614,588L612,592L611,593L607,594L607,595L602,594L602,594L598,594L598,595L598,595L601,597L601,599L603,601L605,602L607,603L609,604L607,607L603,615L602,618L601,620L602,622L604,628L602,632L601,632L600,636L602,638L599,642L600,645L601,647L601,650L601,650L601,650L604,649L609,653L612,650L614,650L615,644L619,646L625,645L627,646L628,652L630,653L631,653L635,656L640,663L643,662L645,666L650,668L652,671L652,671Z " data-id="23" data-name="Coppengrave" id="23"/><path d="M536,566L536,566L538,565L539,562L541,561L542,562L545,563L546,560L547,560L548,557L550,557L550,554L555,554L556,552L560,551L562,546L562,546L562,546L560,546L555,541L552,527L555,525L560,516L560,516L560,516L557,516L558,515L555,503L553,501L548,505L548,506L545,507L542,509L536,507L536,507L536,507L537,516L538,526L535,527L529,531L524,525L523,529L520,527L520,524L521,522L517,519L517,520L510,520L509,523L507,522L505,524L500,526L500,525L497,526L497,527L494,526L493,522L491,519L486,519L486,519L483,520L483,522L477,520L476,523L472,527L470,528L468,531L468,534L467,540L463,542L466,545L464,547L471,550L471,551L473,551L478,553L480,555L483,557L485,558L482,561L482,561L490,563L494,563L499,562L505,565L509,564L514,566L514,568L521,566L521,567L524,565L526,566L529,564L531,564L536,565L536,566Z " data-id="37" data-name="Buchholz" id="37"/><path d="M678,193L678,193L681,188L678,185L675,186L672,186L671,185L669,187L669,189L665,192L661,186L657,183L659,181L657,180L652,178L647,179L647,180L642,179L642,182L636,179L635,176L633,175L632,173L632,170L635,169L633,168L631,164L624,162L624,162L624,162L620,165L613,167L609,166L608,171L604,173L602,176L602,181L601,180L596,183L594,187L591,190L591,190L592,191L593,193L596,199L598,201L598,203L599,207L598,207L598,205L596,206L598,211L599,216L599,216L599,217L599,223L601,224L603,227L614,230L615,230L619,231L623,232L627,234L628,237L632,239L640,240L644,238L645,235L647,234L648,234L648,234L648,229L649,228L654,229L655,228L658,222L661,223L662,222L657,216L659,211L662,210L665,212L667,214L669,212L669,210L671,204L674,200L674,197L677,193L678,193Z " data-id="52" data-name="Drestedt" id="52"/><path d="M767,234L768,234L772,241L774,242L777,242L780,238L782,239L786,244L787,247L792,246L792,245L795,248L797,247L799,243L801,241L808,243L810,242L811,244L810,246L804,248L805,252L809,252L824,259L828,264L830,264L830,268L832,270L832,273L838,274L846,280L847,286L847,290L851,291L853,293L853,299L857,299L857,304L857,306L852,308L852,310L847,312L849,318L852,318L849,325L850,330L847,328L845,332L843,333L840,341L841,342L844,344L844,347L842,348L840,350L843,351L845,352L847,355L848,355L854,355L856,357L857,357L861,354L867,355L873,346L876,345L877,339L878,337L879,335L882,335L887,334L893,336L899,335L898,339L902,340L906,340L910,338L910,337L917,338L923,339L924,341L927,344L928,345L933,345L935,343L937,342L939,344L939,347L947,343L950,342L957,337L961,337L965,332L971,327L973,326L981,324L978,318L980,310L981,305L982,304L985,302L987,304L991,305L992,304L990,303L991,301L999,293L999,292L996,292L994,292L990,288L989,287L983,289L979,287L971,279L967,278L965,279L961,280L959,281L948,286L943,280L938,276L933,271L932,263L927,258L924,257L921,257L917,260L916,259L915,255L914,253L917,249L918,246L917,244L915,243L911,243L907,241L906,238L903,238L897,234L893,229L888,220L887,218L885,213L881,212L880,208L881,206L880,202L877,197L876,197L876,193L869,192L869,193L863,189L861,192L856,196L856,196L853,197L851,200L851,200L848,202L846,203L844,201L838,200L832,195L831,195L830,191L827,191L824,185L819,181L813,182L805,181L792,184L790,182L782,181L775,178L773,176L773,176L773,178L770,182L765,185L765,186L763,186L763,186L763,186L764,189L763,192L759,192L761,195L761,197L765,199L763,202L763,210L764,210L766,214L769,214L771,215L774,217L775,219L777,220L777,216L781,218L780,223L780,225L778,226L780,227L779,230L777,230L775,229L772,229L766,229L767,233L767,234Z " data-id="48" data-name="Adendorf" id="48"/><path d="M622,425L622,425L625,420L625,419L624,415L624,415L624,415L621,412L622,411L621,402L622,400L626,400L628,399L626,393L634,391L636,389L638,390L641,388L642,389L642,379L642,378L639,377L641,376L640,371L641,370L643,365L643,361L646,360L647,352L645,349L646,345L648,344L648,343L650,342L650,337L653,336L653,338L651,339L652,339L655,337L655,340L666,341L668,346L670,347L672,349L679,344L685,340L689,339L691,337L691,336L692,335L693,331L691,320L685,318L683,312L682,311L679,312L672,312L668,314L664,314L663,320L658,321L654,321L650,325L651,327L649,328L644,326L642,327L640,326L638,324L637,325L628,323L626,320L624,318L621,319L616,318L610,315L609,314L609,314L609,314L603,317L602,319L598,319L596,326L592,328L589,328L589,324L587,323L587,322L585,320L581,320L578,323L577,325L570,326L570,327L567,331L567,331L567,331L567,332L562,335L560,335L559,338L559,342L555,346L555,347L552,350L551,353L553,359L549,362L545,361L545,367L547,368L545,371L541,377L540,380L540,380L540,380L543,386L543,388L545,394L542,395L541,398L544,398L548,393L549,391L555,392L555,393L569,394L571,394L571,402L576,403L576,406L576,411L577,411L580,417L581,417L582,417L582,416L585,413L592,412L594,417L595,418L595,421L599,422L599,424L602,425L603,426L602,429L606,436L607,437L607,437L614,437L616,436L617,432L616,431L618,430L619,426L622,426L622,425Z " data-id="43" data-name="Lindwedel" id="43"/><path d="M651,519L652,519L654,519L654,519L653,512L652,508L654,505L658,505L659,503L656,501L655,500L655,500L655,500L653,502L653,498L644,497L644,498L639,495L641,494L639,492L639,491L637,488L633,488L630,487L628,492L627,496L623,496L621,497L621,497L618,496L618,495L613,494L608,495L606,493L601,494L601,495L601,495L598,497L596,497L597,499L597,503L595,505L595,505L595,505L599,506L600,503L604,504L603,504L607,505L606,508L604,510L605,512L606,514L605,515L604,518L602,517L602,519L602,519L602,519L610,525L608,527L608,529L610,534L615,531L617,530L619,528L620,528L622,526L623,526L626,531L627,532L627,532L627,532L632,531L633,530L634,532L637,533L639,536L645,537L648,534L647,532L650,530L649,522L649,522L649,522L651,519Z " data-id="24-28" data-name="Hannover, Landeshauptstadt" id="24-28"/><path d="M317,259L315,265L321,268L328,265L332,264L332,261L333,258L334,252L335,251L339,246L339,246L339,246L339,245L336,237L337,233L335,233L327,231L327,230L323,230L321,229L318,229L317,229L317,229L316,232L313,235L311,234L309,237L308,241L308,245L306,246L305,251L303,253L302,257L302,259L302,260L302,260L311,259L316,258L317,258L317,259Z " data-id="62+63" data-name="Oldenburg (Oldenburg), Stadt" id="62+63"/><path d="M262,550L266,550L268,552L272,554L272,553L275,551L282,549L284,551L286,557L289,556L288,553L291,553L292,553L292,552L292,550L291,546L292,546L290,543L293,542L295,543L297,542L298,540L299,540L300,538L302,536L302,536L302,536L302,534L298,532L297,531L293,531L290,533L286,528L286,527L286,523L281,524L278,524L272,523L270,521L269,518L267,517L259,521L259,521L264,526L262,527L256,527L252,528L251,533L253,534L256,538L256,538L257,537L258,541L257,542L257,546L260,548L260,548L262,550Z " data-id="77+78" data-name="Osnabrück, Stadt" id="77+78"/><path d="M798,562L798,559L797,556L800,556L800,551L802,552L801,547L803,546L806,541L807,541L806,540L806,539L804,539L802,538L801,537L802,532L804,532L803,530L803,528L802,527L800,528L798,526L800,525L800,525L800,525L793,523L789,525L788,527L785,530L785,530L785,530L783,523L781,521L779,521L776,524L775,523L773,524L773,526L774,528L776,529L774,531L774,532L767,530L765,532L762,530L762,529L762,530L759,533L762,536L762,538L762,545L765,546L763,547L760,548L756,544L753,546L751,543L748,538L742,538L742,540L739,545L738,545L738,551L737,553L736,557L735,558L735,558L736,560L737,560L739,566L743,568L744,569L747,568L747,570L748,570L749,575L751,574L751,572L753,572L757,568L758,565L762,566L765,572L771,572L775,571L776,575L778,578L779,577L779,577L781,576L784,576L788,571L790,572L793,572L798,565L798,562L798,562Z " data-id="01-03" data-name="Braunschweig, Stadt" id="01-03"/></g></svg>