<?xml version="1.0" ?><!DOCTYPE svg  PUBLIC '-//W3C//DTD SVG 1.1//EN'  'http://www.w3.org/Graphics/SVG/1.1/DTD/svg11.dtd'><svg enable_background="new 0 0 200 176" height="176px" style="stroke-linejoin: round; stroke:#000; fill: none;" version="1.1" viewBox="0 0 200 176" width="200px" xmlns="http://www.w3.org/2000/svg" xmlns:xlink="http://www.w3.org/1999/xlink"><defs><style type="text/css"><![CDATA[path { fill-rule: evenodd; }]]></style></defs><metadata><views><view h="176.318271444" padding="0" w="200"><proj id="laea" lat0="52.3893522732" lon0="10.773267128"/><bbox h="32.27" w="36.81" x="969.31" y="981.21"/></view></views></metadata><g class="" id="wahlkreise"><path d="M162,97L162,97L161,98L162,101L162,102L162,102L162,102L169,106L172,100L171,100L171,100L165,98L165,98L162,97L162,97Z " data-id="7" data-name="Wolfsburg, Stadt" id="7"/><path d="M125,102L125,104L124,105L124,105L125,105L125,106L125,106L125,106L129,107L130,105L130,104L130,104L130,104L130,104L127,103L126,100L125,102L125,102L125,102Z " data-id="24" data-name="Hannover, Landeshauptstadt" id="24"/><path d="M129,117L129,117L131,121L133,119L135,120L135,120L135,120L136,119L135,116L134,114L129,117L129,117Z " data-id="21" data-name="Hildesheim, Stadt" id="21"/><path d="M81,53L81,53L79,57L80,57L78,59L79,60L81,59L81,59L82,59L82,58L83,57L84,57L84,57L83,54L82,54L82,52L82,52L81,52L81,53L81,53Z " data-id="65" data-name="Delmenhorst, Stadt" id="65"/><path d="M68,49L68,49L68,49L68,46L67,46L64,46L64,46L64,46L62,48L61,49L61,52L61,52L61,52L63,51L63,51L64,51L64,51L64,51L64,48L68,49L68,49Z " data-id="63" data-name="Oldenburg (Oldenburg), Stadt" id="63"/><path d="M57,105L55,104L54,104L52,104L52,104L53,105L51,105L51,107L51,107L52,108L52,108L52,109L52,109L52,109L57,105L57,105Z " data-id="78" data-name="Osnabrück, Stadt" id="78"/><path d="M60,16L57,18L58,21L59,25L59,25L63,20L61,19L60,16L60,16Z " data-id="69" data-name="Wilhelmshaven, Stadt" id="69"/><path d="M166,74L166,73L166,71L169,71L169,71L168,68L170,63L169,63L171,60L170,60L166,54L166,53L162,50L162,48L159,49L155,48L153,47L153,47L153,47L151,48L149,48L148,49L149,53L144,56L144,56L144,56L144,59L144,60L145,65L145,65L145,65L148,72L150,71L152,74L153,73L153,73L153,73L157,72L161,76L162,76L166,74L166,74Z " data-id="47" data-name="Stadensen" id="47"/><path d="M152,37L152,37L146,39L146,44L143,45L143,48L142,48L140,49L138,52L138,52L138,52L140,54L137,57L138,58L141,58L144,56L144,56L144,56L149,53L148,49L149,48L151,48L153,47L153,47L153,46L153,46L156,46L156,43L154,43L152,38L152,37L152,37Z " data-id="49" data-name="Handorf" id="49"/><path d="M152,37L152,37L153,37L153,36L154,35L154,35L151,32L148,32L146,33L142,34L140,32L140,32L138,36L140,38L138,40L135,38L135,38L135,38L132,42L132,44L129,47L129,47L130,47L132,49L134,49L138,52L138,52L138,52L140,49L142,48L143,48L143,45L146,44L146,39L152,37L152,37Z " data-id="50" data-name="Egestorf" id="50"/><path d="M127,27L127,31L126,31L125,32L125,32L125,32L127,33L126,35L130,36L135,38L135,38L135,38L138,40L140,38L138,36L140,32L140,32L138,30L137,32L135,33L132,33L132,31L130,32L127,27L127,27Z " data-id="51" data-name="Neu Wulmstorf" id="51"/><path d="M110,30L110,30L109,32L110,34L112,36L115,36L117,35L118,38L118,38L118,38L120,36L120,35L125,32L125,32L125,32L126,31L127,31L127,27L127,27L127,24L123,23L118,19L118,19L116,19L117,22L116,23L117,26L113,28L110,30L110,30Z " data-id="55" data-name="Hollern-Twielenfleth" id="55"/><path d="M138,52L138,52L134,49L132,49L130,47L129,47L129,47L129,47L124,46L123,46L123,46L125,49L123,50L120,57L122,62L122,62L122,62L125,64L132,63L133,62L137,62L138,67L138,67L138,67L141,66L142,65L145,65L145,65L145,65L144,60L144,59L144,56L144,56L144,56L141,58L138,58L137,57L140,54L138,52L138,52Z " data-id="44" data-name="Munster, Stadt" id="44"/><path d="M118,19L116,14L113,11L111,7L108,3L102,2L100,3L97,4L97,4L98,6L101,7L101,6L104,8L107,9L108,12L105,15L107,16L107,17L103,19L102,21L102,21L102,21L103,25L107,24L105,28L106,29L110,30L110,30L110,30L113,28L117,26L116,23L117,22L116,19L118,19L118,19Z " data-id="56" data-name="Heinbockel" id="56"/><path d="M110,30L110,30L106,29L105,28L107,24L103,25L102,21L102,21L102,21L100,23L95,23L95,24L92,25L95,26L94,33L92,34L92,34L92,34L93,35L94,38L94,38L94,38L96,40L98,50L100,50L103,48L103,48L103,48L104,47L108,48L110,48L113,44L115,45L117,44L119,43L120,43L120,43L119,38L118,38L118,38L118,38L117,35L115,36L112,36L110,34L109,32L110,30L110,30Z " data-id="54" data-name="Klein Meckelsen" id="54"/><path d="M102,21L102,21L103,19L107,17L107,16L105,15L108,12L107,9L104,8L101,6L101,7L98,6L97,4L97,4L94,4L92,4L90,4L90,4L91,6L88,7L86,9L85,9L86,11L87,14L86,18L84,18L84,18L84,18L84,22L86,23L89,23L91,25L90,27L83,30L84,34L87,35L89,34L92,34L92,34L92,34L94,33L95,26L92,25L95,24L95,23L100,23L102,21L102,21Z " data-id="57" data-name="Frelsdorf" id="57"/><path d="M83,19L83,19L84,18L84,18L84,18L86,18L87,14L86,11L85,9L86,9L88,7L91,6L90,4L90,4L86,2L84,0L81,1L79,3L77,10L76,17L77,19L80,20L83,19L83,19Z " data-id="58" data-name="Cappel" id="58"/><path d="M84,18L84,18L83,19L83,19L83,19L81,21L82,26L80,27L76,28L76,28L76,36L76,37L75,44L75,44L78,45L83,48L83,48L84,43L82,40L85,40L85,39L87,39L88,41L90,42L92,40L93,41L94,40L94,38L94,38L94,38L93,35L92,34L92,34L92,34L89,34L87,35L84,34L83,30L90,27L91,25L89,23L86,23L84,22L84,18L84,18Z " data-id="59" data-name="Bramstedt" id="59"/><path d="M94,38L94,38L94,40L93,41L92,40L90,42L88,41L87,39L85,39L85,40L82,40L84,43L83,48L83,48L93,50L95,52L94,54L94,57L94,57L95,57L99,57L102,58L103,58L103,58L103,57L102,54L102,52L103,48L103,48L103,48L100,50L98,50L96,40L94,38L94,38Z " data-id="60" data-name="Lilienthal" id="60"/><path d="M76,28L78,25L75,22L72,21L67,20L66,24L68,24L69,27L67,31L64,32L64,32L64,34L64,35L61,37L61,37L61,37L61,38L64,45L64,46L64,46L67,46L68,46L68,49L68,49L68,49L71,48L71,51L74,50L76,51L78,52L81,53L81,53L81,53L81,52L82,52L82,52L80,48L79,48L75,44L75,44L76,37L76,36L76,28L76,28Z " data-id="71" data-name="Brake (Unterweser), Stadt" id="71"/><path d="M113,66L113,66L117,64L118,65L122,62L122,62L122,62L120,57L123,50L125,49L123,46L123,46L123,46L120,45L120,44L120,43L120,43L119,43L117,44L115,45L113,44L110,48L108,48L104,47L103,48L103,48L103,48L102,52L102,54L103,57L103,58L103,58L109,59L109,61L112,60L114,63L113,66L113,66Z " data-id="53" data-name="Kirchwalsede" id="53"/><path d="M94,57L93,59L93,59L92,59L92,59L92,60L91,62L93,67L93,67L93,67L94,67L95,65L102,67L103,69L103,72L104,72L105,73L107,73L108,76L108,76L108,76L110,71L112,68L113,66L113,66L113,66L114,63L112,60L109,61L109,59L103,58L103,58L103,58L102,58L99,57L95,57L94,57L94,57Z " data-id="61" data-name="Achim, Stadt" id="61"/><path d="M151,90L151,90L150,89L152,87L151,86L151,83L150,79L153,74L153,73L153,73L152,74L150,71L148,72L145,65L145,65L145,65L142,65L141,66L138,67L138,67L138,67L134,69L133,68L131,68L129,70L128,75L124,80L125,83L125,83L125,83L128,82L129,81L130,83L131,84L132,83L135,84L135,82L137,83L136,79L139,79L141,80L143,87L139,90L137,88L135,89L135,89L135,89L134,90L135,92L135,92L135,92L138,92L138,92L142,94L143,93L146,95L146,93L146,93L146,93L149,91L149,90L151,90L151,90Z " data-id="45" data-name="Langlingen" id="45"/><path d="M125,83L125,83L125,83L125,84L124,85L124,85L124,85L127,86L127,87L127,87L127,87L127,87L129,87L135,89L135,89L135,89L137,88L139,90L143,87L141,80L139,79L136,79L137,83L135,82L135,84L132,83L131,84L130,83L129,81L128,82L125,83L125,83Z " data-id="46" data-name="Celle, Stadt" id="46"/><path d="M162,97L162,97L165,98L165,98L165,98L171,100L171,100L171,99L171,99L173,96L173,96L173,95L175,94L173,90L173,86L172,86L166,77L166,75L166,74L162,76L161,76L157,72L153,73L153,73L153,74L150,79L151,83L151,86L152,87L150,89L151,90L151,90L151,90L153,90L158,90L159,91L158,94L160,94L160,96L162,97L162,97Z " data-id="5" data-name="Wahrenholz" id="5"/><path d="M135,92L134,92L134,93L134,94L131,100L131,100L131,100L131,101L131,103L131,103L131,103L133,103L133,104L137,104L138,105L138,105L138,105L141,102L140,101L145,99L147,98L147,98L147,98L147,96L146,96L146,93L146,93L146,93L146,95L143,93L142,94L138,92L138,92L135,92L135,92Z " data-id="30" data-name="Lehrte, Stadt" id="30"/><path d="M135,92L135,92L134,90L135,89L135,89L135,89L129,87L127,87L127,87L127,87L126,94L121,93L120,98L120,98L120,98L121,98L123,98L124,99L124,99L126,97L128,99L131,100L131,100L131,100L134,94L134,93L134,92L135,92Z " data-id="31" data-name="Isernhagen" id="31"/><path d="M124,85L124,85L124,85L123,87L121,87L121,87L121,87L118,89L119,94L116,95L114,97L115,99L115,99L115,99L117,99L117,100L119,101L119,101L119,101L119,99L119,99L120,99L120,98L120,98L121,93L126,94L127,87L127,87L127,87L127,87L127,86L124,85L124,85Z " data-id="32" data-name="Wedemark" id="32"/><path d="M121,102L121,101L120,100L119,101L119,101L119,101L117,100L117,99L115,99L115,99L115,99L114,101L114,101L112,103L112,103L112,103L110,105L111,108L112,109L112,109L112,109L113,109L113,109L113,109L113,109L118,108L119,108L120,103L120,103L120,103L121,103L121,102L121,102Z " data-id="34" data-name="Gehrden, Stadt" id="34"/><path d="M120,103L120,103L119,108L118,108L113,109L113,109L113,109L115,113L114,115L119,118L119,118L120,118L122,118L124,116L124,114L124,114L124,114L125,113L122,111L124,108L125,108L125,106L125,106L125,106L125,105L124,105L124,105L122,106L122,105L120,103L120,103Z " data-id="35" data-name="Hemmingen, Stadt" id="35"/><path d="M125,106L125,106L125,108L124,108L122,111L125,113L124,114L124,114L124,114L124,115L127,113L127,113L127,113L126,112L129,109L131,110L134,108L136,108L136,108L136,108L137,107L138,105L138,105L138,105L137,104L133,104L133,103L131,103L131,103L130,103L130,103L130,104L130,104L130,104L130,104L130,105L129,107L125,106L125,106Z " data-id="29" data-name="Laatzen, Stadt" id="29"/><path d="M121,102L121,103L120,103L120,103L120,103L122,105L122,106L124,105L124,105L125,104L125,102L124,103L123,103L121,102L121,102Z " data-id="27" data-name="Hannover, Landeshauptstadt" id="27"/><path d="M124,99L123,98L121,98L120,98L120,98L120,99L119,99L119,99L119,101L119,101L119,101L120,100L121,101L121,102L121,102L123,103L124,103L124,103L123,102L123,100L124,100L124,99L124,99Z " data-id="26" data-name="Hannover, Landeshauptstadt" id="26"/><path d="M124,100L124,100L126,100L126,100L127,103L130,104L130,104L130,104L130,103L130,103L131,103L131,103L131,101L131,100L131,100L131,100L128,99L126,97L124,99L124,99L124,100L124,100Z " data-id="25" data-name="Hannover, Landeshauptstadt" id="25"/><path d="M116,83L116,83L113,84L112,86L109,86L109,89L108,90L108,90L108,90L104,91L104,95L106,97L108,97L107,101L107,101L107,101L110,100L111,100L112,103L112,103L112,103L114,101L114,101L115,99L115,99L115,99L114,97L116,95L119,94L118,89L121,87L121,87L121,87L121,85L119,84L118,82L116,83L116,83Z " data-id="33" data-name="Neustadt am Rübenberge, Stadt" id="33"/><path d="M108,90L108,90L104,87L103,87L98,83L95,82L95,82L95,82L90,84L89,85L88,84L84,83L80,80L79,84L76,88L74,92L74,92L77,93L80,91L82,92L83,100L86,100L90,100L92,99L96,93L100,95L99,96L99,100L97,103L97,103L99,105L104,105L107,105L107,101L107,101L107,101L108,97L106,97L104,95L104,91L108,90L108,90Z " data-id="39" data-name="Binnen" id="39"/><path d="M95,82L95,82L98,83L103,87L104,87L108,90L108,90L108,90L109,89L109,86L112,86L113,84L116,83L116,83L116,83L114,79L110,78L109,79L108,76L108,76L108,76L107,73L105,73L104,72L103,72L103,69L102,67L95,65L94,67L93,67L93,67L93,67L90,69L90,70L90,72L90,72L90,72L91,77L92,78L94,77L95,79L95,82L95,82Z " data-id="40" data-name="Bücken, Flecken" id="40"/><path d="M84,57L83,57L82,58L82,59L81,59L82,59L81,61L83,62L83,65L81,65L80,69L80,69L80,70L84,75L85,74L87,73L88,71L90,72L90,72L90,72L90,70L90,69L93,67L93,67L93,67L91,62L92,60L92,59L92,59L88,58L86,56L84,57L84,57Z " data-id="41" data-name="Weyhe" id="41"/><path d="M74,92L76,88L79,84L80,80L84,83L88,84L89,85L90,84L95,82L95,82L95,82L95,79L94,77L92,78L91,77L90,72L90,72L90,72L88,71L87,73L85,74L84,75L80,70L80,69L80,69L76,71L77,71L73,73L73,73L73,73L73,76L67,80L66,83L67,87L68,88L68,88L68,88L68,90L67,90L66,92L66,92L66,93L66,93L66,94L66,95L66,95L70,96L72,95L74,92L74,92Z " data-id="42" data-name="Marl" id="42"/><path d="M68,49L68,49L68,49L64,53L64,53L64,51L64,51L63,51L63,51L61,52L61,52L61,52L60,52L58,54L57,55L57,55L57,55L60,59L66,58L68,59L74,66L74,71L74,71L74,71L74,72L74,72L73,73L73,73L73,73L77,71L76,71L80,69L80,69L80,69L81,65L83,65L83,62L81,61L82,59L81,59L81,59L79,60L78,59L80,57L79,57L81,53L81,53L81,53L78,52L76,51L74,50L71,51L71,48L68,49L68,49Z " data-id="64" data-name="Hude (Oldenburg)" id="64"/><path d="M64,46L64,45L61,38L61,37L61,37L61,37L59,36L57,38L55,38L52,35L51,35L51,35L50,39L44,44L44,46L44,46L44,46L48,47L51,51L51,51L54,54L57,55L57,55L57,55L58,54L60,52L61,52L61,52L61,52L61,49L62,48L64,46L64,46Z " data-id="72" data-name="Apen" id="72"/><path d="M40,54L40,54L44,57L44,61L46,62L48,65L48,65L48,65L52,63L55,65L57,66L59,65L60,64L64,68L65,67L65,67L65,67L68,67L71,70L71,71L74,71L74,71L74,71L74,66L68,59L66,58L60,59L57,55L57,55L57,55L54,54L51,51L51,51L48,47L44,46L44,46L44,46L42,46L40,54L40,54Z " data-id="66" data-name="Barßel" id="66"/><path d="M65,67L65,67L64,68L60,64L59,65L57,66L55,65L52,63L48,65L48,65L48,65L46,67L43,68L42,72L42,72L42,72L40,76L42,79L42,80L42,80L45,80L46,78L50,79L51,80L52,79L55,80L55,80L55,80L57,78L57,75L59,74L62,75L64,73L65,67L65,67Z " data-id="67" data-name="Cappeln (Oldenburg)" id="67"/><path d="M55,80L55,80L58,84L56,86L58,89L60,91L62,88L68,88L68,88L68,88L67,87L66,83L67,80L73,76L73,73L73,73L73,73L74,72L74,72L74,71L74,71L74,71L71,71L71,70L68,67L65,67L65,67L65,67L64,73L62,75L59,74L57,75L57,78L55,80L55,80Z " data-id="68" data-name="Bakum" id="68"/><path d="M60,16L57,11L56,11L50,11L50,11L50,14L50,16L51,20L49,23L51,24L54,24L54,26L55,29L51,32L51,33L51,33L51,33L51,34L51,34L51,35L51,35L52,35L55,38L57,38L59,36L61,37L61,37L61,37L64,35L64,34L64,32L64,32L60,29L59,28L59,25L59,25L58,21L57,18L60,16L60,16Z " data-id="70" data-name="Jever, Stadt" id="70"/><path d="M13,15L13,13L12,13L13,15Z M45,34L45,34L49,34L50,34L51,34L51,33L51,33L51,32L55,29L54,26L54,24L51,24L49,23L51,20L50,16L50,14L50,11L49,11L43,12L41,12L30,12L30,12L30,14L30,15L30,16L30,16L30,16L32,15L34,17L34,21L34,22L42,21L43,21L44,25L43,27L43,32L45,34L45,34Z M47,6L45,7L47,8L50,7L47,6Z M20,11L17,12L17,12L20,11Z M31,9L25,9L25,11L31,10L31,9Z " data-id="87" data-name="Nordseeinsel Memmert, gemfr. Gebiet" id="87"/><path d="M30,16L30,16L30,15L30,14L30,12L30,12L27,13L21,19L22,21L20,22L19,21L16,33L17,34L24,34L26,36L26,36L28,36L28,36L28,34L28,34L28,34L27,30L26,27L24,27L26,20L29,20L30,16L30,16Z " data-id="85" data-name="Emden, Stadt" id="85"/><path d="M37,34L37,34L38,34L41,36L45,34L45,34L45,34L43,32L43,27L44,25L43,21L42,21L34,22L34,21L34,17L32,15L30,16L30,16L30,16L29,20L26,20L24,27L26,27L27,30L28,34L28,34L29,34L32,34L36,33L37,34L37,34Z " data-id="86" data-name="Ihlow" id="86"/><path d="M37,34L37,34L36,33L32,34L29,34L28,34L28,34L28,36L28,36L26,36L26,36L24,45L25,45L24,50L24,50L31,52L35,53L35,53L35,53L36,44L32,42L32,39L36,39L37,39L37,34L37,34Z M9,16L4,16L4,17L6,19L7,19L9,16Z " data-id="84" data-name="Weener, Stadt" id="84"/><path d="M44,46L44,46L44,44L50,39L51,35L51,35L51,35L51,34L51,34L51,33L51,33L51,34L50,34L49,34L45,34L45,34L45,34L41,36L38,34L37,34L37,34L37,34L37,39L36,39L32,39L32,42L36,44L35,53L35,53L35,53L36,54L38,55L40,54L40,54L40,54L42,46L44,46L44,46Z " data-id="83" data-name="Ostrhauderfehn" id="83"/><path d="M64,51L64,53L64,53L68,49L68,49L64,48L64,51L64,51L64,51Z " data-id="62" data-name="Oldenburg (Oldenburg), Stadt" id="62"/><path d="M42,72L42,72L43,68L46,67L48,65L48,65L48,65L46,62L44,61L44,57L40,54L40,54L40,54L38,55L36,54L35,53L35,53L35,53L31,52L24,50L24,50L23,51L22,61L19,65L19,65L21,66L21,68L28,69L30,70L29,74L31,73L32,76L42,72L42,72Z " data-id="82" data-name="Klein Berßen" id="82"/><path d="M42,80L42,79L40,76L42,72L42,72L42,72L32,76L31,73L29,74L30,70L28,69L21,68L21,66L19,65L19,65L18,69L15,81L14,81L14,81L13,83L19,85L21,87L21,87L21,87L30,86L32,90L38,89L39,89L39,89L39,85L38,84L42,80L42,80Z " data-id="81" data-name="Wettrup" id="81"/><path d="M21,87L21,87L24,89L24,92L22,94L18,97L20,99L17,101L19,101L20,103L21,106L21,106L27,105L30,103L31,102L36,99L38,97L36,96L38,93L38,93L38,92L38,91L39,89L39,89L38,89L32,90L30,86L21,87L21,87Z " data-id="80" data-name="Lingen (Ems), Stadt" id="80"/><path d="M21,87L21,87L19,85L13,83L14,81L14,81L9,80L3,80L2,81L2,84L4,85L2,86L1,86L1,88L1,90L4,92L7,92L9,94L12,93L13,94L16,98L16,100L14,106L17,107L17,106L21,106L21,106L20,103L19,101L17,101L20,99L18,97L22,94L24,92L24,89L21,87L21,87Z " data-id="79" data-name="Bad Bentheim, Stadt" id="79"/><path d="M55,80L55,80L52,79L51,80L50,79L46,78L45,80L42,80L42,80L42,80L38,84L39,85L39,89L39,89L39,89L38,91L38,92L38,93L38,93L40,94L42,96L42,98L49,100L49,100L47,94L48,93L51,95L53,94L60,97L66,92L66,92L66,92L67,90L68,90L68,88L68,88L68,88L62,88L60,91L58,89L56,86L58,84L55,80L55,80Z " data-id="73" data-name="Badbergen" id="73"/><path d="M69,100L67,99L67,98L66,95L66,95L66,94L66,93L66,93L66,92L66,92L60,97L53,94L51,95L48,93L47,94L49,100L49,100L51,102L51,103L52,104L52,104L54,104L55,104L57,105L58,105L60,106L60,106L61,107L61,107L61,107L64,104L64,105L69,100L69,100Z " data-id="75" data-name="Ostercappeln" id="75"/><path d="M61,107L61,107L59,108L59,108L59,110L59,110L59,110L59,113L58,116L58,118L59,117L60,121L60,121L65,117L67,118L73,115L74,114L71,112L72,108L72,105L71,102L70,100L69,100L64,105L64,104L61,107L61,107Z " data-id="74" data-name="Bissendorf" id="74"/><path d="M60,121L59,117L58,118L58,116L59,113L59,110L59,110L58,110L57,111L57,109L52,109L52,109L52,108L52,108L51,107L51,107L50,108L49,111L52,114L53,114L53,117L48,120L49,122L52,123L54,121L60,121L60,121Z " data-id="76" data-name="Glandorf" id="76"/><path d="M52,109L57,109L57,111L58,110L59,110L59,110L59,108L59,108L61,107L61,107L61,107L60,106L60,106L58,105L57,105L52,109L52,109Z " data-id="77" data-name="Osnabrück, Stadt" id="77"/><path d="M100,120L101,119L104,119L107,123L111,122L112,119L111,117L107,113L107,113L107,113L101,112L100,112L96,112L96,112L95,112L96,114L94,115L94,117L100,120L100,120Z " data-id="38" data-name="Rinteln, Stadt" id="38"/><path d="M100,120L101,122L101,124L101,129L105,130L104,130L106,132L106,132L110,128L117,125L120,129L120,129L120,129L121,122L121,121L119,118L119,118L119,118L114,115L115,113L113,109L113,109L113,109L113,109L112,109L112,109L112,109L110,110L110,111L107,113L107,113L107,113L111,117L112,119L111,122L107,123L104,119L101,119L100,120L100,120Z " data-id="36" data-name="Aerzen, Flecken" id="36"/><path d="M130,133L130,133L123,129L122,130L120,129L120,129L120,129L117,125L110,128L106,132L106,132L108,134L107,136L112,136L111,138L112,141L110,142L109,145L109,148L109,150L110,150L110,150L111,150L111,147L117,143L117,141L122,136L125,136L130,134L130,133Z " data-id="20" data-name="Arholzen" id="20"/><path d="M138,105L138,105L137,107L136,108L136,108L136,108L135,112L145,113L145,113L145,113L146,113L146,112L147,111L147,111L147,111L147,110L149,107L152,109L152,109L152,109L152,108L152,107L152,105L152,105L152,105L151,104L152,103L151,103L149,99L147,98L147,98L147,98L145,99L140,101L141,102L138,105L138,105Z " data-id="4" data-name="Edemissen" id="4"/><path d="M159,112L159,112L159,112L159,112L159,112L160,111L160,109L161,108L161,108L161,108L160,107L160,105L160,104L160,104L158,104L158,104L157,106L157,106L155,111L155,111L159,112L159,112Z " data-id="1" data-name="Braunschweig, Stadt" id="1"/><path d="M152,119L152,119L154,116L155,116L155,115L155,115L155,115L155,114L151,113L150,115L149,113L147,111L147,111L147,111L146,112L146,113L145,113L145,113L145,113L146,115L145,116L144,116L144,116L144,116L146,120L148,121L149,124L152,123L152,119L152,119Z " data-id="11" data-name="Salzgitter, Stadt" id="11"/><path d="M168,114L168,114L167,115L166,114L164,117L161,117L160,117L158,118L155,119L153,119L152,119L152,119L152,120L152,123L149,124L148,121L146,120L144,116L144,116L144,116L142,118L143,119L143,127L143,127L143,127L145,127L147,125L148,127L148,127L148,127L151,125L153,124L155,126L154,127L157,129L158,127L158,127L161,125L161,125L167,124L168,124L169,120L170,119L171,116L168,114L168,114Z " data-id="10" data-name="Uehrde" id="10"/><path d="M135,120L135,120L133,124L134,126L138,129L138,130L138,130L138,130L143,127L143,127L143,127L143,127L143,119L142,118L144,116L144,116L144,116L145,116L146,115L145,113L145,113L145,113L135,112L136,108L136,108L136,108L134,108L131,110L129,109L126,112L127,113L127,113L127,113L128,114L129,115L129,117L129,117L129,117L134,114L135,116L136,119L135,120L135,120Z " data-id="22" data-name="Bad Salzdetfurth, Stadt" id="22"/><path d="M160,133L160,132L160,130L158,127L158,127L157,129L154,127L155,126L153,124L151,125L148,127L148,127L148,127L147,130L145,131L148,132L146,134L149,134L149,138L153,137L155,133L157,132L160,135L160,133L160,133Z M155,132L155,133L155,132L155,132Z " data-id="14" data-name="Goslar, Stadt" id="14"/><path d="M148,127L148,127L147,125L145,127L143,127L143,127L143,127L143,127L138,130L138,130L138,130L138,132L137,132L137,132L137,132L139,133L139,136L139,138L139,138L139,138L140,138L140,139L141,141L141,141L141,141L143,139L145,140L145,141L149,143L150,141L155,143L154,148L155,150L159,149L162,152L162,152L161,145L158,142L159,137L161,136L161,134L160,133L160,133L160,135L157,132L155,133L153,137L149,138L149,134L146,134L148,132L145,131L147,130L148,127L148,127Z " data-id="13" data-name="Bad Harzburg, Stadt" id="13"/><path d="M130,133L130,134L125,136L122,136L117,141L117,143L111,147L111,150L110,150L110,150L112,150L112,150L112,150L115,149L116,150L117,152L117,152L118,152L121,155L121,155L121,155L123,154L123,153L123,153L123,153L125,150L122,146L124,146L125,143L128,145L130,145L131,144L133,141L134,142L136,139L139,138L139,138L139,138L139,136L139,133L137,132L137,132L137,132L136,131L134,131L135,133L133,134L132,133L130,134L130,133Z M120,157L120,157L120,157L121,156L121,156L120,155L120,157L120,157Z " data-id="19" data-name="Kreiensen" id="19"/><path d="M139,138L139,138L136,139L134,142L133,141L131,144L130,145L128,145L125,143L124,146L122,146L125,150L123,153L123,153L123,153L131,154L132,153L137,153L137,153L137,153L139,153L139,153L141,151L141,151L141,151L140,147L139,146L141,141L141,141L141,141L140,139L140,138L139,138L139,138Z M112,150L114,152L115,152L117,152L117,152L116,150L115,149L112,150L112,150Z " data-id="18" data-name="Kalefeld" id="18"/><path d="M149,157L150,155L152,155L157,157L162,152L162,152L159,149L155,150L154,148L155,143L150,141L149,143L145,141L145,140L143,139L141,141L141,141L141,141L139,146L140,147L141,151L141,151L141,151L147,154L147,154L149,157L149,157Z M147,154L147,154L147,154L147,154Z " data-id="12" data-name="Hörden am Harz" id="12"/><path d="M129,160L132,162L136,159L136,157L136,157L136,157L135,155L133,155L130,156L129,160L129,160Z " data-id="17" data-name="Göttingen, Stadt" id="17"/><path d="M126,167L123,165L128,164L126,162L126,159L129,160L129,160L130,156L133,155L135,155L136,157L136,157L136,157L137,156L136,155L137,153L137,153L137,153L132,153L131,154L123,153L123,153L123,153L123,154L121,155L121,155L121,155L121,155L121,156L121,156L120,157L120,157L120,157L120,157L118,159L119,166L117,167L116,171L119,173L123,174L122,170L126,167L126,167Z " data-id="16" data-name="Hann. Münden, Stadt" id="16"/><path d="M141,151L141,151L139,153L139,153L137,153L137,153L137,153L136,155L137,156L136,157L136,157L136,157L136,159L132,162L129,160L129,160L129,160L126,159L126,162L128,164L123,165L126,167L126,167L129,169L129,167L130,166L132,169L141,164L142,162L144,162L147,160L148,159L149,157L149,157L147,154L147,154L141,151L141,151Z M147,154L147,154L147,154L147,154Z " data-id="15" data-name="Bilshausen" id="15"/><path d="M157,106L157,106L157,104L155,104L152,105L152,105L152,105L152,107L152,108L152,109L152,109L152,109L153,110L153,110L155,111L155,111L155,111L157,106Z " data-id="3" data-name="Braunschweig, Stadt" id="3"/><path d="M152,105L152,105L155,104L157,104L157,106L157,106L157,106L157,106L157,106L157,106L158,104L158,104L160,104L160,104L160,104L160,102L161,102L162,102L162,102L162,102L162,101L161,98L162,97L162,97L162,97L160,96L160,94L158,94L159,91L158,90L153,90L151,90L151,90L151,90L149,90L149,91L146,93L146,93L146,93L146,96L147,96L147,98L147,98L147,98L149,99L151,103L152,103L151,104L152,105L152,105Z " data-id="6" data-name="Didderse" id="6"/><path d="M168,124L174,124L174,122L173,121L177,119L179,112L176,108L177,107L176,104L178,103L179,103L173,96L173,96L171,99L171,99L171,100L171,100L172,100L169,106L162,102L162,102L162,102L161,102L160,102L160,104L160,104L160,105L160,107L161,108L161,108L161,108L162,108L165,109L168,114L168,114L168,114L171,116L170,119L169,120L168,124L168,124Z " data-id="8" data-name="Königslutter, gemfr. Gebiet" id="8"/><path d="M152,109L152,109L149,107L147,110L147,111L147,111L147,111L149,113L150,115L151,113L155,114L155,115L155,115L155,115L157,115L159,112L159,112L155,111L155,111L155,111L153,110L153,110L152,109L152,109Z " data-id="2" data-name="Vechelde" id="2"/><path d="M161,108L161,108L160,109L160,111L159,112L159,112L159,112L159,112L159,112L157,115L155,115L155,115L155,115L155,116L154,116L152,119L152,119L153,119L155,119L158,118L160,117L161,117L164,117L166,114L167,115L168,114L168,114L168,114L165,109L162,108L161,108L161,108Z " data-id="9" data-name="Am Großen Rhode, gemfr. Gebiet" id="9"/><path d="M130,133L130,134L132,133L133,134L135,133L134,131L136,131L137,132L137,132L137,132L138,132L138,130L138,130L138,130L138,129L134,126L133,124L135,120L135,120L135,120L133,119L131,121L129,117L129,117L129,117L129,115L128,114L127,113L127,113L127,113L124,115L124,114L124,114L124,114L124,116L122,118L120,118L119,118L119,118L121,121L121,122L120,129L120,129L120,129L122,130L123,129L130,133L130,133Z " data-id="23" data-name="Coppengrave" id="23"/><path d="M107,113L107,113L110,111L110,110L112,109L112,109L112,109L111,108L110,105L112,103L112,103L112,103L111,100L110,100L107,101L107,101L107,101L107,105L104,105L99,105L97,103L97,103L94,105L93,109L95,110L96,112L96,112L100,112L101,112L107,113L107,113Z " data-id="37" data-name="Buchholz" id="37"/><path d="M135,38L135,38L130,36L126,35L127,33L125,32L125,32L125,32L120,35L120,36L118,38L118,38L118,38L119,38L120,43L120,43L120,43L120,44L120,45L123,46L123,46L124,46L129,47L129,47L129,47L129,47L132,44L132,42L135,38L135,38Z " data-id="52" data-name="Drestedt" id="52"/><path d="M153,47L153,47L155,48L159,49L162,48L162,50L166,53L166,54L170,60L171,60L169,63L170,63L168,68L169,71L169,71L173,71L175,69L175,67L184,68L186,69L190,68L195,63L196,60L198,60L199,58L195,57L194,55L189,57L187,55L186,52L183,52L181,48L176,42L175,39L172,38L169,40L166,39L164,36L160,36L159,37L154,35L154,35L153,36L153,37L152,37L152,37L152,37L152,38L154,43L156,43L156,46L153,46L153,46L153,47Z " data-id="48" data-name="Adendorf" id="48"/><path d="M124,85L124,85L125,84L125,83L125,83L125,83L125,83L124,80L128,75L129,70L131,68L133,68L134,69L138,67L138,67L138,67L137,62L133,62L132,63L125,64L122,62L122,62L122,62L118,65L117,64L113,66L113,66L113,66L112,68L110,71L108,76L108,76L108,76L109,79L110,78L114,79L116,83L116,83L116,83L118,82L119,84L121,85L121,87L121,87L121,87L123,87L124,85L124,85L124,85Z " data-id="43" data-name="Lindwedel" id="43"/><path d="M123,100L123,102L124,103L125,102L125,102L126,100L126,100L124,100L124,100L123,100Z " data-id="28" data-name="Hannover, Landeshauptstadt" id="28"/></g></svg>